<?xml version="1.0" encoding="UTF-8"?>
<svg version="1.1" xmlns="http://www.w3.org/2000/svg" width="589" height="876">
<path d="M0 0 C1.09755025 -0.01064158 1.09755025 -0.01064158 2.21727324 -0.02149814 C4.66430722 -0.03907314 7.10975168 -0.02097759 9.5567627 -0.00291443 C11.31291934 -0.00805348 13.06907083 -0.01533465 14.82521057 -0.02459717 C19.59182116 -0.04312131 24.35787285 -0.03016624 29.12446022 -0.01050687 C34.11227703 0.00587257 39.10005825 -0.00293228 44.08789062 -0.00802612 C52.46416151 -0.01254787 60.84020914 0.00332778 69.21643066 0.03126526 C78.90102696 0.0633175 88.5852206 0.06330167 98.26984549 0.04605049 C107.58547103 0.0301877 116.90094891 0.03691737 126.21656799 0.0539875 C130.18140085 0.0608608 134.14611545 0.05982268 138.11094666 0.05244255 C142.77978025 0.04478242 147.4481555 0.05689692 152.11691093 0.08429146 C153.8305621 0.09117924 155.54425605 0.09126904 157.25790596 0.08407593 C159.59700965 0.0753887 161.93469644 0.09132301 164.27368164 0.11352539 C166.23703838 0.11773577 166.23703838 0.11773577 168.2400589 0.12203121 C172.22727044 0.7161696 173.88106601 1.72097208 176.63684082 4.62818909 C178.15342591 8.05256963 177.76853085 11.89771533 177.77728271 15.59188843 C177.78025384 16.29273817 177.78322496 16.99358792 177.78628612 17.71567553 C177.79495703 20.06388552 177.79648 22.41204444 177.79797363 24.76026917 C177.80260292 26.44406238 177.80762773 28.12785456 177.8130188 29.81164551 C177.8261336 34.38611253 177.8325859 38.96056488 177.83702946 43.53504777 C177.8399615 46.39351171 177.84406655 49.25197165 177.84853363 52.11043358 C177.86220578 61.05546354 177.87187397 70.00048435 177.87573552 78.94552404 C177.88021653 89.26849412 177.89776759 99.59133181 177.92673612 109.91426164 C177.9483559 117.89570474 177.95843995 125.8771106 177.95977664 133.85858268 C177.9608244 138.6246539 177.96672616 143.39060063 177.98459625 148.15664101 C178.00108216 152.64068036 178.00322992 157.12450169 177.99445724 161.60856056 C177.99368716 163.25205062 177.99802577 164.89555243 178.0079155 166.53901291 C178.02064964 168.78744664 178.01475085 171.03510983 178.0043335 173.28353882 C178.00580006 174.54027814 178.00726662 175.79701746 178.00877762 177.09183979 C177.56670144 181.29506946 176.60003428 183.89417148 174.63684082 187.62818909 C170.9041336 190.11666057 168.97714464 189.88650928 164.51419067 189.90234375 C163.4192037 189.91019877 163.4192037 189.91019877 162.30209577 189.91821247 C159.84933209 189.933247 157.39677638 189.93391837 154.94396973 189.93458557 C153.18811184 189.94220473 151.4322573 189.9506318 149.67640686 189.95980835 C144.90160128 189.9817839 140.12685974 189.99055631 135.3520093 189.99563479 C132.37010593 189.99927466 129.38821943 190.00551276 126.40632248 190.01263618 C116.00691742 190.03714097 105.60756233 190.05018487 95.20812988 190.0537262 C85.50879341 190.05736263 75.80977315 190.08726306 66.11053336 190.12913078 C57.78773492 190.16379971 49.46504145 190.17927404 41.14217126 190.17997223 C36.16927052 190.18076619 31.19669176 190.18955911 26.22386551 190.21796989 C21.5468459 190.24409251 16.87041655 190.24638839 12.19335747 190.23031425 C10.47645598 190.22849514 8.759521 190.23523213 7.04269218 190.25113297 C4.69891169 190.27151764 2.35721126 190.26108926 0.01345825 190.24291992 C-1.29804388 190.24493125 -2.60954601 190.24694258 -3.96079063 190.24901485 C-8.34600215 189.44885101 -9.79113721 188.24346654 -12.36315918 184.62818909 C-12.99236488 181.23140717 -12.99236488 181.23140717 -12.99807739 177.26502991 C-13.00977732 176.16747966 -13.00977732 176.16747966 -13.02171361 175.04775667 C-13.04162644 172.600745 -13.02587335 170.15528987 -13.01013184 167.70826721 C-13.01690833 165.95210869 -13.02581164 164.19595728 -13.03668213 162.43981934 C-13.05947841 157.6732256 -13.05063781 152.9071729 -13.0347867 148.14056969 C-13.02212942 143.1527447 -13.03386734 138.16496609 -13.04171753 133.17713928 C-13.05081459 124.80087464 -13.03882468 116.42483042 -13.01501465 108.04859924 C-12.98780328 98.36394795 -12.9966174 88.67982296 -13.02414668 78.99518442 C-13.04683511 70.6808034 -13.05003912 62.36658083 -13.03695333 54.05217886 C-13.02915737 49.08605923 -13.02812124 44.120187 -13.04463577 39.15408325 C-13.0590774 34.48517783 -13.04906455 29.81695106 -13.02016449 25.14811897 C-13.01355201 23.43446543 -13.01545416 21.72075479 -13.02647781 20.00712395 C-13.04013952 17.66776068 -13.02301362 15.3305728 -12.99807739 12.99134827 C-12.99619226 11.68244377 -12.99430714 10.37353928 -12.99236488 9.02497101 C-11.5997637 1.50698048 -7.05350282 0.00315954 0 0 Z " fill="#F59E1F" transform="translate(65.3631591796875,26.371810913085938)"/>
<path d="M0 0 C4.31798976 1.78351751 5.89800136 3.90990725 8 8 C8.97811041 11.00007064 9.70686657 14.04836531 10.43603516 17.1171875 C10.65919907 18.0267218 10.88236298 18.9362561 11.11228943 19.87335205 C11.84590493 22.87200915 12.56756408 25.87340652 13.2890625 28.875 C13.79734236 30.96354999 14.30633501 33.05192663 14.81600952 35.14013672 C16.15470876 40.63386315 17.48314437 46.13002306 18.80963135 51.62670898 C19.8938749 56.11237202 20.98513527 60.59631331 22.07682228 65.08016968 C24.332744 74.34594968 26.58399412 83.61286998 28.82275391 92.8828125 C29.13289177 94.16251923 29.13289177 94.16251923 29.44929504 95.46807861 C30.37302251 99.30026008 31.26941009 103.1250859 32 107 C34.17950749 101.39989039 35.99576285 95.80897939 37.58789062 90.01708984 C37.82734909 89.15749161 38.06680756 88.29789337 38.31352234 87.4122467 C38.82901584 85.56029621 39.34292523 83.70790418 39.85539246 81.85511398 C40.66764879 78.91974401 41.48481943 75.98578218 42.30334473 73.05215454 C44.62834142 64.71607515 46.94487873 56.37765513 49.25732422 48.03808594 C50.6755904 42.92459221 52.09981765 37.81278879 53.52763367 32.70195389 C54.06898545 30.75939066 54.60800144 28.81617489 55.14460754 26.87229538 C55.89487673 24.15465342 56.65266956 21.43921227 57.41210938 18.72412109 C57.63037888 17.92604538 57.84864838 17.12796967 58.0735321 16.30570984 C61.35005624 4.68120547 61.35005624 4.68120547 66 1 C71.2967533 -0.76558443 76.11152661 -0.74826304 81.3125 1.3125 C88.96702283 8.96702283 90.70102046 24.16231922 93.5703125 34.421875 C94.0975223 36.29520856 94.62510661 38.16843676 95.15304565 40.04156494 C96.53356084 44.9433701 97.90911709 49.84655293 99.28356934 54.75006104 C100.68219187 59.73654705 102.0853928 64.72174406 103.48828125 69.70703125 C105.06585914 75.31412285 106.64294239 80.92135052 108.21682739 86.52947998 C108.57605286 87.80946617 108.57605286 87.80946617 108.9425354 89.11531067 C109.38601633 90.69584458 109.82935734 92.27641777 110.27252197 93.85704041 C111.50272501 98.24160462 112.74556502 102.62230453 114 107 C117.30628988 95.41284041 120.33540627 83.78902451 123.11030769 72.06361961 C123.74156369 69.40070899 124.37876565 66.73928314 125.01768494 64.07820129 C126.83026488 56.52849921 128.63988368 48.97815167 130.42797852 41.42260742 C131.53114739 36.76310589 132.64711037 32.10683101 133.7715435 27.45241737 C134.19452526 25.69094571 134.61273997 23.92832195 135.02598763 22.16454124 C135.6016552 19.70971715 136.19356224 17.25934322 136.78930664 14.80932617 C136.95408508 14.0888208 137.11886353 13.36831543 137.28863525 12.62597656 C138.55806724 7.51320943 140.49896912 3.87577316 144.75 0.6875 C149.3767336 -0.72622416 153.45373779 -0.68722765 157.8125 1.25 C161.21946007 3.97556805 162.71981879 5.76761226 163.70141602 10.08520508 C164.05968065 14.78248506 163.2453493 18.3800647 162.02734375 22.88671875 C161.79712524 23.78117706 161.56690674 24.67563538 161.32971191 25.59719849 C160.54524212 28.63082525 159.74164918 31.65903488 158.9375 34.6875 C158.36951666 36.86065817 157.8025757 39.03408899 157.23657227 41.20776367 C156.11371379 45.51276176 154.98570748 49.81635049 153.85253811 54.11864567 C151.48424609 63.11518114 149.16125173 72.12305196 146.84568787 81.13328552 C145.12614139 87.82328464 143.39715395 94.51083218 141.66562748 101.1977396 C140.42722878 105.98098135 139.19212229 110.76501661 137.96481323 115.55111694 C136.79228176 120.12151704 135.60838287 124.688831 134.41621399 129.25414658 C133.97386377 130.95582306 133.53546641 132.65853261 133.10127258 134.3623085 C132.50056315 136.71685625 131.88570032 139.06727377 131.26733398 141.41723633 C131.09639693 142.10110759 130.92545988 142.78497885 130.74934292 143.48957348 C129.40260219 148.51624815 127.45929013 153.23971972 123.1171875 156.34765625 C120.39650092 157.18594898 117.97230032 157.37591717 115.125 157.4375 C114.11695313 157.47746094 113.10890625 157.51742187 112.0703125 157.55859375 C108.05756781 156.82853969 105.62962794 155.01599082 103 152 C101.59380002 149.22720257 100.7853432 146.37310321 99.97387695 143.37915039 C99.72899945 142.54284371 99.48412195 141.70653704 99.23182392 140.84488773 C98.72208062 139.09673992 98.22128587 137.34595949 97.72919083 135.59276199 C97.04065603 133.14455943 96.32703522 130.70563877 95.60116577 128.26828003 C94.42875612 124.32442764 93.27840716 120.37461578 92.1366787 116.42178154 C91.3945478 113.85250995 90.64953096 111.28408906 89.90388489 108.71583557 C88.32926691 103.29044373 86.75821524 97.86402278 85.1875 92.4375 C83.34749338 86.08184759 81.50599979 79.72663142 79.66143227 73.3723011 C78.92804647 70.84334506 78.19701873 68.3137153 77.46611023 65.78404236 C77.02072911 64.24849325 76.57524442 62.71297417 76.12963867 61.17749023 C75.92759323 60.4758223 75.72554779 59.77415436 75.51737976 59.05122375 C74.47348804 55.44471322 74.47348804 55.44471322 73 52 C72.73992661 52.90105972 72.47985321 53.80211945 72.2118988 54.73048401 C69.72877995 63.33276567 67.24388101 71.93453149 64.75735378 80.53582859 C63.47987516 84.95503515 62.20296793 89.37440493 60.92749023 93.79418945 C58.27473618 102.98512505 55.61346506 112.17344362 52.93150902 121.35590553 C51.56545709 126.03845652 50.2249992 130.7273638 48.89892578 135.42138672 C48.29913225 137.49855431 47.69876722 139.57555703 47.09765625 141.65234375 C46.84962753 142.55602188 46.60159882 143.45970001 46.34605408 144.39076233 C44.84716762 149.48464089 43.2495308 152.54242915 39 156 C36.34929326 157.32535337 34.21038704 157.27926609 31.25 157.375 C30.22390625 157.42398438 29.1978125 157.47296875 28.140625 157.5234375 C24.05615754 156.84269292 21.62450727 155.10360036 19 152 C17.57435901 148.98421546 16.7974259 145.88319505 16.00830078 142.64990234 C15.76429094 141.72684988 15.52028111 140.80379742 15.26887703 139.85277367 C14.75375517 137.89436504 14.24830716 135.93338962 13.75193024 133.97014618 C13.02412044 131.09527644 12.26983985 128.22888604 11.50531006 125.36358643 C9.93190041 119.44992211 8.39844796 113.52625555 6.8671875 107.6015625 C6.30265814 105.4254242 5.73788443 103.24934928 5.17288208 101.07333374 C3.70254109 95.40818985 2.23516278 89.74228313 0.76855469 84.07617188 C-1.29980062 76.08757333 -3.37231983 68.1000538 -5.44430542 60.11239624 C-6.54277561 55.87765861 -7.64016097 51.64264238 -8.73660278 47.40737915 C-8.99082945 46.42644476 -9.24505611 45.44551037 -9.50698662 44.43485069 C-9.99776917 42.54007563 -10.48760297 40.64505452 -10.97639656 38.7497654 C-12.03420663 34.6598399 -13.10796838 30.57741312 -14.25286865 26.51092529 C-14.44259687 25.82983389 -14.6323251 25.14874249 -14.82780266 24.44701195 C-15.32153397 22.6859955 -15.82587143 20.92796162 -16.33126831 19.17025757 C-17.28962574 14.62697071 -17.7128453 10.61328146 -15.8125 6.3125 C-11.16887189 0.38787103 -7.36237238 -1.09766279 0 0 Z " fill="#F49721" transform="translate(78,539)"/>
<path d="M0 0 C13.69111603 13.17229067 18.3800224 29.99893691 18.99591064 48.64135742 C19.0425471 52.06136424 19.05954227 55.48006617 19.06274414 58.90039062 C19.06607254 60.15786102 19.06940094 61.41533142 19.0728302 62.71090698 C19.07787139 65.36166955 19.08067471 68.01232943 19.08007812 70.66308594 C19.07999707 73.34707407 19.08691193 76.03089076 19.10058594 78.71484375 C19.34492149 130.37435996 19.34492149 130.37435996 1.57836914 149.00976562 C-13.3199929 163.21462446 -30.94677079 168.16757069 -51.07006836 167.85742188 C-67.81612132 167.2159207 -83.12951555 160.25055921 -95.10522461 148.58007812 C-110.37903868 131.61973093 -112.24981227 111.31736876 -112.27319336 89.44726562 C-112.27652176 88.33054474 -112.27985016 87.21382385 -112.28327942 86.06326294 C-112.28830703 83.71535652 -112.29068905 81.36744305 -112.29052734 79.01953125 C-112.29270622 75.48490208 -112.31088646 71.9505895 -112.32983398 68.41601562 C-112.39095055 44.21226237 -112.19036633 20.70579605 -94.68334961 2.06835938 C-84.54781496 -7.71396725 -73.09350078 -14.24285564 -59.10522461 -16.41992188 C-58.00887695 -16.60361328 -58.00887695 -16.60361328 -56.89038086 -16.79101562 C-36.26679732 -19.57056682 -15.46108897 -14.11331154 0 0 Z M-74.91772461 21.20507812 C-83.6047639 31.72627188 -83.26354486 46.05399635 -83.30834961 58.95898438 C-83.31404968 60.24385239 -83.31974976 61.5287204 -83.32562256 62.8525238 C-83.33607739 65.56648141 -83.34195511 68.28040991 -83.34545898 70.99438477 C-83.34983317 73.74745006 -83.36369364 76.50020011 -83.38647461 79.25317383 C-84.65857839 106.4302791 -84.65857839 106.4302791 -74.10522461 130.58007812 C-66.30981888 138.45146247 -57.17067071 141.92441514 -46.16772461 142.14257812 C-36.12421736 142.03836534 -27.15006022 138.72287857 -19.85522461 131.71679688 C-2.81342558 110.90906458 -7.75380851 70.68842137 -9.89135742 45.66552734 C-11.22050304 32.70484023 -14.8149967 23.45776151 -24.95678711 15.08398438 C-41.22882456 3.69355816 -61.47752545 7.45032111 -74.91772461 21.20507812 Z " fill="#FFFFFF" transform="translate(543.105224609375,302.419921875)"/>
<path d="M0 0 C0.8790097 -0.00708481 1.75801941 -0.01416962 2.66366577 -0.02146912 C4.11383842 -0.01775299 4.11383842 -0.01775299 5.5933075 -0.01396179 C7.11788574 -0.02162819 7.11788574 -0.02162819 8.67326355 -0.02944946 C12.04730552 -0.04339697 15.42114435 -0.04238451 18.79521179 -0.04008484 C21.13450192 -0.04396955 23.47379134 -0.04830375 25.81307983 -0.05307007 C30.72340681 -0.06054383 35.6336619 -0.06023308 40.54399109 -0.05497742 C46.83910787 -0.04918792 53.13392994 -0.06609586 59.42899799 -0.08932209 C64.26311974 -0.10405089 69.09717044 -0.10493216 73.93131065 -0.10181236 C76.25215932 -0.10232622 78.57301191 -0.10757601 80.89383888 -0.11762428 C84.14021066 -0.12995158 87.38600751 -0.12321837 90.63237 -0.11161804 C91.59307907 -0.11926178 92.55378815 -0.12690552 93.54360962 -0.13478088 C98.44496749 -0.0960419 101.8589171 0.02030642 105.80693054 3.26069641 C108.54218381 6.51343003 109.71497812 8.52507707 110.24443054 12.76069641 C109.65550193 17.47212531 108.3728947 20.74693106 104.93193054 24.07319641 C100.40706874 26.60179565 95.54009695 26.40123214 90.46220398 26.45014954 C89.74131592 26.45844284 89.02042786 26.46673615 88.2776947 26.47528076 C86.71993393 26.49261523 85.16214804 26.50779976 83.60434723 26.52105713 C81.14204237 26.5421543 78.67986493 26.56916692 76.21763611 26.59773254 C70.10773597 26.66741747 63.99774598 26.72710023 57.88774109 26.78675842 C52.71463136 26.83760766 47.54159334 26.89237768 42.36858368 26.95257568 C39.93722638 26.97921717 37.50586255 26.99998383 35.07444763 27.02058411 C33.59432143 27.03717741 32.11419831 27.05404838 30.63407898 27.07124329 C29.33677856 27.08377136 28.03947815 27.09629944 26.7028656 27.10920715 C23.91330597 26.93125354 23.91330597 26.93125354 22.80693054 28.26069641 C22.7087031 29.72874933 22.67894684 31.20147101 22.67753601 32.67280579 C22.67438385 33.61047791 22.67123169 34.54815002 22.66798401 35.51423645 C22.67000824 36.53400574 22.67203247 37.55377502 22.67411804 38.60444641 C22.67316132 39.6438739 22.67220459 40.68330139 22.67121887 41.75422668 C22.67053691 43.95674195 22.67239227 46.1592592 22.67655945 48.36177063 C22.68190747 51.7460936 22.67661496 55.13028385 22.67021179 58.51460266 C22.67087257 60.64871754 22.67215373 62.78283233 22.67411804 64.91694641 C22.67209381 65.9367157 22.67006958 66.95648499 22.66798401 68.00715637 C22.67113617 68.94482849 22.67428833 69.88250061 22.67753601 70.84858704 C22.6783316 71.67830017 22.6791272 72.50801331 22.6799469 73.36286926 C22.59850502 75.27171165 22.59850502 75.27171165 23.80693054 76.26069641 C25.73847312 76.36856678 27.67392567 76.40697589 29.60844421 76.41841125 C30.85030991 76.4286734 32.0921756 76.43893555 33.37167358 76.44950867 C34.03990332 76.45294659 34.70813305 76.45638451 35.39661217 76.45992661 C37.48614426 76.47169726 39.57546793 76.49114787 41.66491699 76.51304626 C47.60744738 76.57470366 53.54996042 76.62860283 59.49272156 76.6620636 C63.12505649 76.68306825 66.75701819 76.718425 70.38913918 76.7628212 C71.77130535 76.77694445 73.15353765 76.78569533 74.53577232 76.78887558 C76.47674426 76.79381128 78.41763438 76.8186266 80.35844421 76.8441925 C81.46129257 76.85227936 82.56414093 76.86036621 83.70040894 76.86869812 C88.67564589 77.49650138 91.87675039 79.20812413 95.18193054 82.94819641 C97.15776704 86.97586312 97.65831199 89.86335512 96.80693054 94.26069641 C94.75301449 98.61499843 92.6372343 100.85731671 88.15647888 102.65614319 C82.77405016 104.04107517 77.11783949 103.72361951 71.59599304 103.73725891 C70.21832262 103.75158494 68.84066643 103.76734482 67.46302795 103.7844696 C63.85662137 103.82612605 60.25030318 103.85125902 56.64372253 103.8719635 C50.85050741 103.9079333 45.05750938 103.96864855 39.26452255 104.03045273 C37.24086823 104.04957114 35.21727251 104.06127529 33.19355774 104.07188416 C31.36563187 104.08727737 31.36563187 104.08727737 29.5007782 104.10298157 C27.88364426 104.11272507 27.88364426 104.11272507 26.23384094 104.12266541 C23.85808494 103.98760404 23.85808494 103.98760404 22.80693054 105.26069641 C22.71366338 106.82616689 22.68947472 108.39582414 22.69340515 109.96406555 C22.69351845 111.46550865 22.69351845 111.46550865 22.69363403 112.99728394 C22.69879532 114.08581161 22.7039566 115.17433929 22.70927429 116.29585266 C22.71068924 117.40423996 22.71210419 118.51262726 22.71356201 119.65460205 C22.71918021 123.2108271 22.73173579 126.76699024 22.74443054 130.32319641 C22.7494432 132.72749238 22.75400651 135.13178933 22.75810242 137.53608704 C22.76915555 143.44431145 22.78591138 149.35249951 22.80693054 155.26069641 C23.77301743 155.26656265 24.73910431 155.27242889 25.73446655 155.2784729 C34.84236536 155.33570507 43.95002551 155.40846926 53.05768108 155.49641132 C57.73994918 155.54112414 62.42213008 155.58037826 67.10453796 155.60713196 C71.6239889 155.63315585 76.14310447 155.67355176 80.66234779 155.72388268 C82.3858555 155.74055758 84.10942121 155.75206798 85.83299828 155.75831032 C88.24873828 155.76794474 90.6636191 155.79599514 93.07914734 155.82832336 C93.79052856 155.82688828 94.50190979 155.82545319 95.23484802 155.82397461 C99.59589399 155.90642531 102.32743785 156.61293754 105.80693054 159.26069641 C108.50516389 162.46940634 109.70138215 164.53505118 110.30693054 168.69819641 C109.66882063 173.24472953 108.455383 175.5087221 105.80693054 179.26069641 C102.92067603 181.09705967 100.70578396 181.51136645 97.31520081 181.5146637 C95.97343781 181.52312317 95.97343781 181.52312317 94.60456848 181.53175354 C93.63091339 181.52770508 92.6572583 181.52365662 91.65409851 181.51948547 C90.10722351 181.52474243 90.10722351 181.52474243 88.52909851 181.53010559 C85.11903664 181.53891131 81.70918203 181.53307861 78.29911804 181.52632141 C75.93307963 181.52766818 73.56704149 181.52960882 71.20100403 181.53211975 C66.24295923 181.53506927 61.2849865 181.53077805 56.32695007 181.5214386 C49.95990721 181.51003178 43.59303273 181.51661249 37.22599602 181.52858353 C32.34139223 181.53579611 27.45682864 181.53351718 22.57222366 181.52832794 C20.22378138 181.52699042 17.8753355 181.52864271 15.52689743 181.53328705 C12.25149043 181.53834372 8.97635983 181.53065463 5.70097351 181.51948547 C4.72326996 181.52353394 3.74556641 181.5275824 2.73823547 181.53175354 C1.84936646 181.52611389 0.96049744 181.52047424 0.04469299 181.5146637 C-1.11726939 181.51353262 -1.11726939 181.51353262 -2.30270576 181.51237869 C-4.19306946 181.26069641 -4.19306946 181.26069641 -6.19306946 179.26069641 C-6.44475174 176.25591278 -6.44475174 176.25591278 -6.44703674 172.31404114 C-6.45015672 171.59095465 -6.45327671 170.86786817 -6.45649123 170.12286997 C-6.46450092 167.68761064 -6.45813615 165.25259844 -6.45185852 162.81733704 C-6.45456707 161.07646539 -6.45812723 159.33559488 -6.46247864 157.59472656 C-6.47162113 152.85723007 -6.46805075 148.11982038 -6.46172047 143.38232231 C-6.45667008 138.43312718 -6.46134923 133.48393967 -6.4644928 128.53474426 C-6.46813526 120.22218995 -6.46332602 111.90967112 -6.45381165 103.59712219 C-6.44292656 93.97567669 -6.44645194 84.35431594 -6.45746446 74.73287249 C-6.46652938 66.48402952 -6.46782651 58.23521213 -6.46258712 49.9863658 C-6.45946303 45.05446451 -6.45907006 40.1226031 -6.4656601 35.19070435 C-6.4714214 30.55488921 -6.46745906 25.91918375 -6.45587158 21.28338051 C-6.45321846 19.57813512 -6.45400113 17.87288056 -6.45839691 16.16763878 C-6.46382825 13.84741686 -6.45704796 11.52755068 -6.44703674 9.20735168 C-6.44628269 7.90653404 -6.44552864 6.6057164 -6.44475174 5.26548004 C-6.05015457 0.55446458 -4.31339258 0.01156031 0 0 Z " fill="#FFFFFF" transform="translate(256.1930694580078,286.7393035888672)"/>
<path d="M0 0 C2.77926636 -0.38095093 2.77926636 -0.38095093 6.37060547 -0.38818359 C7.02461838 -0.39344055 7.67863129 -0.39869751 8.35246277 -0.40411377 C10.52427801 -0.41736013 12.69536416 -0.40854993 14.8671875 -0.3984375 C16.38257996 -0.40045935 17.89797146 -0.40337172 19.4133606 -0.40713501 C22.5995606 -0.41156659 25.78550891 -0.40510977 28.97167969 -0.39111328 C33.02419465 -0.37416602 37.07610718 -0.38376398 41.12859917 -0.40183067 C44.26537448 -0.41277126 47.40201174 -0.40917316 50.53879166 -0.4014473 C52.0304789 -0.39946588 53.52217929 -0.40183095 55.01385117 -0.40888596 C70.1078323 -0.46452363 84.40388641 1.51310412 95.8125 12.1875 C105.00440135 21.96404525 107.52993934 33.08123654 107.30859375 46.1796875 C106.42933305 57.06471237 101.92115319 65.808852 93.71875 73 C91.77261609 74.82024025 91.77261609 74.82024025 92.01953125 77.0546875 C93.22605356 79.44850468 94.55469457 80.50813036 96.6875 82.125 C103.73608402 88.02202002 108.35689814 96.10778137 109.21923828 105.34960938 C109.69103343 115.62250466 110.07888627 125.75990785 105 135 C104.36384766 136.19109375 104.36384766 136.19109375 103.71484375 137.40625 C97.7642614 147.35151298 88.76257927 152.36236846 78 156 C73.88254048 157.01895483 69.99833176 157.13264787 65.76293945 157.14526367 C64.69864716 157.15030159 64.69864716 157.15030159 63.612854 157.15544128 C61.27964506 157.16490133 58.94650815 157.16689137 56.61328125 157.16796875 C54.98854035 157.17118289 53.36379974 157.17454709 51.73905945 157.17805481 C48.34059985 157.18403232 44.94216565 157.18589594 41.54370117 157.18530273 C37.18215288 157.18520076 32.82076608 157.19889556 28.45925617 157.21607494 C25.10761256 157.2271688 21.75600847 157.22922281 18.40434837 157.22869301 C16.7955386 157.22987544 15.18672789 157.23431187 13.57793617 157.24202538 C11.33479916 157.25178012 9.09201923 157.24896626 6.84887695 157.24291992 C5.57156204 157.24434494 4.29424713 157.24576996 2.97822571 157.24723816 C0 157 0 157 -2 155 C-2.25168228 152.38844395 -2.25168228 152.38844395 -2.25396729 149.00917053 C-2.25960693 147.73180527 -2.26524658 146.45444 -2.27105713 145.1383667 C-2.26716814 143.71472112 -2.26307177 142.29107609 -2.25878906 140.86743164 C-2.26149786 139.37448455 -2.26505817 137.88153879 -2.26940918 136.38859558 C-2.27854948 132.3266255 -2.274982 128.26475669 -2.26865101 124.20278478 C-2.26359854 119.95740686 -2.26828044 115.71203779 -2.27142334 111.46665955 C-2.27506559 104.3352604 -2.27025754 97.20390263 -2.26074219 90.07250977 C-2.2498613 81.82232121 -2.2533795 73.57223153 -2.264395 65.32204539 C-2.2734655 58.24599964 -2.27475419 51.16998368 -2.26951766 44.093934 C-2.26639611 39.86455282 -2.26599359 35.63521813 -2.27259064 31.40583992 C-2.27835988 27.42909802 -2.27437498 23.45248378 -2.26280212 19.47575569 C-2.26015309 18.0144268 -2.26092477 16.5530872 -2.26532745 15.09176254 C-2.27077459 13.10044991 -2.26273964 11.10911387 -2.25396729 9.11781311 C-2.25321323 8.00227586 -2.25245918 6.88673861 -2.25168228 5.73739719 C-2 3 -2 3 0 0 Z M23 24 C22.7085401 27.02736052 22.60422829 29.84686756 22.63671875 32.875 C22.63622025 33.75526855 22.63572174 34.63553711 22.63520813 35.54248047 C22.63755068 37.40529638 22.64728988 39.26811532 22.66381836 41.13085938 C22.68740564 43.98856797 22.68438152 46.84534387 22.67773438 49.703125 C22.68331109 51.51042225 22.69042093 53.31771556 22.69921875 55.125 C22.69830734 55.98335449 22.69739594 56.84170898 22.69645691 57.72607422 C22.54128881 62.34235129 22.54128881 62.34235129 25 66 C27.76421993 66.21251605 30.42549798 66.30396157 33.19140625 66.30078125 C34.42031837 66.30720894 34.42031837 66.30720894 35.67405701 66.31376648 C37.41331051 66.31951811 39.15258808 66.32000393 40.8918457 66.31567383 C43.52793767 66.31254107 46.16287728 66.33586597 48.79882812 66.36132812 C50.4921861 66.36360405 52.18554706 66.36430326 53.87890625 66.36328125 C55.04662315 66.37709587 55.04662315 66.37709587 56.2379303 66.39118958 C64.34304419 66.32420248 71.6121951 64.30510443 77.55859375 58.6484375 C82.23021198 53.30582803 82.55408837 47.79799153 82.33984375 40.93359375 C81.60535195 34.59332546 79.15771316 30.64391472 74.25 26.625 C68.18906075 22.0665625 60.75022501 21.69425602 53.44921875 21.734375 C52.66859573 21.73246155 51.88797272 21.7305481 51.08369446 21.72857666 C49.44926629 21.72722594 47.81482699 21.73084388 46.18041992 21.73925781 C43.67667841 21.75004663 41.17364249 21.73928789 38.66992188 21.7265625 C37.07551925 21.72788287 35.48111707 21.73044274 33.88671875 21.734375 C33.13984299 21.73032654 32.39296722 21.72627808 31.62345886 21.72210693 C27.87273622 21.75614435 26.2008267 21.86611554 23 24 Z M23 90 C22.55044131 91.91640177 22.55044131 91.91640177 22.62768555 94.14257812 C22.62145676 94.99686401 22.61522797 95.8511499 22.60881042 96.73132324 C22.61802017 97.65529907 22.62722992 98.5792749 22.63671875 99.53125 C22.63622025 100.47810669 22.63572174 101.42496338 22.63520813 102.4005127 C22.63755105 104.40456234 22.64729232 106.40861479 22.66381836 108.41259766 C22.68740467 111.48757115 22.68438178 114.56167786 22.67773438 117.63671875 C22.68331108 119.58073436 22.6904209 121.5247463 22.69921875 123.46875 C22.69830734 124.39272583 22.69739594 125.31670166 22.69645691 126.26867676 C22.70598892 127.12296265 22.71552094 127.97724854 22.7253418 128.85742188 C22.72994919 129.61083862 22.73455658 130.36425537 22.73930359 131.14050293 C22.84416252 133.24555191 22.84416252 133.24555191 25 135 C27.98036075 135.22502565 30.86478276 135.32820237 33.84765625 135.3359375 C34.73351913 135.3425943 35.61938202 135.3492511 36.53208923 135.35610962 C38.41256635 135.36625097 40.29307955 135.37092618 42.17358398 135.37060547 C45.02715162 135.37494623 47.87913148 135.4111584 50.73242188 135.44921875 C52.56249474 135.4550934 54.39257492 135.45905845 56.22265625 135.4609375 C57.06675552 135.47530853 57.9108548 135.48967957 58.78053284 135.50448608 C66.12952602 135.44891353 71.62836173 133.09790826 77.8125 129.25 C82.4781133 124.45108346 84.73178671 118.41971948 85.25 111.8125 C84.85492562 105.78761563 83.55646822 100.89300188 79.6875 96.1875 C69.11748385 87.58399848 59.10790348 87.67197901 46.10498047 87.73925781 C43.61010944 87.7500645 41.11594409 87.73927387 38.62109375 87.7265625 C37.03124842 87.72788262 35.44140352 87.73044195 33.8515625 87.734375 C33.10782379 87.73032654 32.36408508 87.72627808 31.59780884 87.72210693 C27.85432178 87.75623727 26.19530238 87.86979841 23 90 Z " fill="#F49721" transform="translate(455,539)"/>
<path d="M0 0 C3.24206245 3.05785436 4.11012557 5.56482026 4.4375 9.984375 C4.08842751 15.04592606 2.42587507 17.26173155 -0.9375 20.921875 C-5.07314119 23.34931657 -8.12659935 23.54655513 -12.8125 22.609375 C-16.06428368 21.24984814 -19.19062635 19.70289488 -22.3515625 18.14453125 C-35.31891645 12.39264626 -50.50112591 11.57060628 -63.8125 16.609375 C-70.23644776 20.26220804 -75.71682733 25.35512347 -77.8125 32.609375 C-79.25506457 39.69565709 -79.17259748 46.07585213 -75.8125 52.609375 C-67.04773051 63.57582104 -52.88687999 64.69582933 -39.9375 66.609375 C-21.96670561 69.27688609 -3.68993584 72.36751528 8.1875 87.609375 C11.97167203 93.84905422 15.11953173 100.34989446 16.1875 107.609375 C16.32027344 108.47691406 16.45304687 109.34445312 16.58984375 110.23828125 C17.93760266 121.61094355 17.00211711 133.55894411 11.1875 143.609375 C10.77757812 144.34414063 10.36765625 145.07890625 9.9453125 145.8359375 C1.16129437 160.27745883 -12.46881429 166.83396931 -28.26953125 170.84765625 C-51.62538273 175.86903556 -77.75971655 173.10488092 -98.5625 161.09375 C-102.05968709 158.78657796 -104.90787885 156.4186173 -106.8125 152.609375 C-107.43383059 148.30725055 -107.78286679 144.27542013 -105.54296875 140.4296875 C-103.00870025 137.45762566 -100.90535585 135.03675819 -96.95703125 134.23046875 C-90.13752944 133.69359005 -85.36614131 135.99226982 -79.69458008 139.49975586 C-70.32336374 145.11374793 -60.04722635 146.15042808 -49.3125 146.046875 C-48.21824707 146.04002686 -47.12399414 146.03317871 -45.99658203 146.02612305 C-38.27783529 145.87225524 -31.73760379 145.27134088 -24.8125 141.609375 C-24.12542969 141.27035156 -23.43835938 140.93132812 -22.73046875 140.58203125 C-17.35960949 137.40474398 -14.57441632 132.48762678 -12.8125 126.609375 C-11.76610929 118.51361531 -11.89289562 110.42113492 -16.8125 103.609375 C-26.16429916 93.17763834 -44.18981187 93.50755334 -57.19726562 91.6796875 C-69.71139813 89.78606068 -81.78951843 86.70794411 -91.8125 78.609375 C-92.43640625 78.10921875 -93.0603125 77.6090625 -93.703125 77.09375 C-101.45650777 70.14941586 -106.05248952 59.5983815 -107.03149414 49.30737305 C-107.82089164 33.12554828 -105.53944846 18.92760965 -94.77734375 6.203125 C-72.78513196 -17.06905678 -25.61028155 -19.64926774 0 0 Z " fill="#FFFFFF" transform="translate(161.8125,297.390625)"/>
<path d="M0 0 C1.26783325 0.00135956 1.26783325 0.00135956 2.5612793 0.00274658 C3.45086838 -0.00397064 4.34045746 -0.01068787 5.25700378 -0.01760864 C8.20898976 -0.03666498 11.16074924 -0.04051692 14.11279297 -0.04266357 C16.16062006 -0.04908709 18.20844623 -0.05581511 20.25627136 -0.06283569 C24.5545769 -0.0748282 28.85280195 -0.07851458 33.15112305 -0.07733154 C38.65939423 -0.07712845 44.16714892 -0.1044123 49.67529774 -0.13887596 C53.90722523 -0.16111526 58.13902796 -0.16516996 62.37100792 -0.16411209 C64.40159571 -0.16647323 66.43218668 -0.17532552 68.46271706 -0.19077682 C71.30453205 -0.21037301 74.14522752 -0.20462337 76.98706055 -0.19256592 C77.82621002 -0.20380493 78.6653595 -0.21504395 79.52993774 -0.22662354 C83.52233698 -0.18357922 85.49122375 -0.00907804 88.94364929 2.17910767 C91.24069493 4.57775756 92.21531316 6.05559513 92.96826172 9.29327393 C92.77884033 14.59707281 91.66563965 17.48385424 87.96826172 21.29327393 C85.17338378 22.69071289 82.85693468 22.43346488 79.73022461 22.45098877 C78.41868912 22.46125092 77.10715363 22.47151306 75.75587463 22.48208618 C74.7013721 22.48724306 74.7013721 22.48724306 73.62556648 22.49250412 C71.42756729 22.50428297 69.22976548 22.5237322 67.03184509 22.54562378 C60.782283 22.60727957 54.53274146 22.66132139 48.28295898 22.69464111 C44.4614603 22.7155649 40.64032192 22.75084775 36.81902885 22.79539871 C35.36181308 22.80957614 33.90453357 22.81828509 32.44725227 22.82145309 C30.40998841 22.82635127 28.37280138 22.85110028 26.33569336 22.87677002 C25.17590469 22.88485687 24.01611603 22.89294373 22.82118225 22.90127563 C19.98686067 23.07212286 19.98686067 23.07212286 18.09356689 24.5887146 C16.11342129 27.58814598 16.56417309 31.09877958 16.60498047 34.57452393 C16.60448196 35.38441772 16.60398346 36.19431152 16.60346985 37.02874756 C16.60580914 38.74015762 16.61552917 40.4515712 16.63208008 42.16290283 C16.65567368 44.7834955 16.65264005 47.40307078 16.64599609 50.02374268 C16.65157296 51.68650916 16.65868289 53.34927136 16.66748047 55.01202393 C16.66656906 55.79645874 16.66565765 56.58089355 16.66471863 57.38909912 C16.71457344 61.21167039 16.79809483 63.0380236 18.96826172 66.29327393 C21.34589425 66.74279627 21.34589425 66.74279627 24.14892578 66.66217041 C25.23054993 66.6690538 26.31217407 66.67593719 27.42657471 66.68302917 C29.18744415 66.67379173 29.18744415 66.67379173 30.98388672 66.66436768 C33.45654432 66.68175526 35.92920054 66.69933959 38.40185547 66.71710205 C42.31024764 66.7271689 46.21854854 66.7307738 50.12695312 66.72906494 C53.89204276 66.73263623 57.6564232 66.75999364 61.42138672 66.78936768 C63.17011078 66.77709389 63.17011078 66.77709389 64.9541626 66.76457214 C71.21983332 66.82203658 75.25885643 66.96588962 79.96826172 71.29327393 C81.82552788 75.00780624 81.55327261 79.24906818 80.96826172 83.29327393 C78.77803254 86.11751681 77.13808965 87.70835996 73.96826172 89.29327393 C72.2225247 89.39735999 70.47291883 89.43923659 68.72412109 89.45098877 C67.62958618 89.46125092 66.53505127 89.47151306 65.40734863 89.48208618 C64.22088745 89.48938751 63.03442627 89.49668884 61.81201172 89.50421143 C59.32111962 89.53226984 56.83023428 89.56093422 54.33935547 89.59014893 C50.39550898 89.63151278 46.4517902 89.66838359 42.5078125 89.69464111 C38.71311094 89.72212178 34.91899171 89.76798429 31.12451172 89.81671143 C29.93805054 89.81996429 28.75158936 89.82321716 27.5291748 89.8265686 C26.43463989 89.84313507 25.34010498 89.85970154 24.21240234 89.87677002 C23.24580688 89.88485687 22.27921143 89.89294373 21.2833252 89.90127563 C20.51935425 90.03063507 19.7553833 90.15999451 18.96826172 90.29327393 C16.40013399 94.14546552 16.68021687 97.32804275 16.70263672 101.79327393 C16.70072327 102.62536377 16.69880981 103.45745361 16.69683838 104.3147583 C16.69547797 106.07322492 16.69916434 107.83170163 16.70751953 109.59014893 C16.71822123 112.28308655 16.70761951 114.97535707 16.69482422 117.66827393 C16.69614584 119.37660873 16.69870829 121.08494312 16.70263672 122.79327393 C16.69858826 123.59958252 16.69453979 124.40589111 16.69036865 125.2366333 C16.72287252 129.10802085 16.77137123 130.99793819 18.96826172 134.29327393 C21.79418862 134.74453054 21.79418862 134.74453054 25.15869141 134.66217041 C26.46054382 134.6690538 27.76239624 134.67593719 29.10369873 134.68302917 C29.80183434 134.67985121 30.49996994 134.67667324 31.21926117 134.67339897 C33.40569219 134.66430296 35.59126284 134.6744959 37.77764893 134.6900177 C43.99416711 134.73014901 50.21061996 134.73132589 56.42724609 134.72906494 C60.22931401 134.72901372 64.03092128 134.74824821 67.83286285 134.77839851 C69.98122773 134.78919723 72.12870257 134.77710665 74.27703857 134.76457214 C75.59149963 134.7746077 76.90596069 134.78464325 78.26025391 134.79498291 C79.98994415 134.79473366 79.98994415 134.79473366 81.75457764 134.79447937 C85.68945338 135.40520978 87.86608752 136.84288953 90.96826172 139.29327393 C93.24904816 142.86320053 93.11285537 146.05207238 92.84326172 150.23077393 C91.43870833 153.54150692 89.01255562 155.52823675 85.96826172 157.29327393 C82.92589746 157.98639532 79.98335812 157.94785044 76.87353516 157.89263916 C75.53104706 157.89855324 75.53104706 157.89855324 74.16143799 157.90458679 C71.21626017 157.91127608 68.27264746 157.88218646 65.32763672 157.85186768 C63.27834371 157.84761632 61.22904589 157.84528886 59.17974854 157.84480286 C54.89255845 157.83864487 50.60589237 157.8159744 46.31884766 157.78033447 C40.81499175 157.73494837 35.31160862 157.72030218 29.80758286 157.71659756 C25.58005078 157.71217723 21.35261854 157.69688989 17.1251297 157.67772102 C15.09487989 157.66882498 13.06461939 157.66210172 11.03435516 157.65756035 C8.20452286 157.64855226 5.37512546 157.62619478 2.54541016 157.59967041 C1.27993347 157.5986734 1.27993347 157.5986734 -0.0111084 157.59765625 C-5.80256025 157.52245196 -5.80256025 157.52245196 -8.03173828 155.29327393 C-8.28342056 152.66330719 -8.28342056 152.66330719 -8.28570557 149.25775146 C-8.29134521 147.97052689 -8.29698486 146.68330231 -8.30279541 145.35707092 C-8.29890644 143.92239324 -8.29481008 142.48771611 -8.29052734 141.05303955 C-8.29323611 139.54861786 -8.29679639 138.0441975 -8.30114746 136.53977966 C-8.3102874 132.44688623 -8.30672064 128.3540933 -8.30038929 124.26119804 C-8.29533757 119.98465573 -8.30001843 115.70812222 -8.30316162 111.43157959 C-8.30680369 104.24890594 -8.30199587 97.06627337 -8.29248047 89.88360596 C-8.28159545 81.57091368 -8.28512086 73.2583195 -8.29613328 64.9456296 C-8.30519931 57.8177953 -8.30649479 50.68999059 -8.30125594 43.56215239 C-8.29813246 39.30094513 -8.29773721 35.03978403 -8.30432892 30.77857971 C-8.31009184 26.77311405 -8.30612495 22.76777528 -8.29454041 18.76232338 C-8.29188815 17.28928654 -8.2926685 15.81623907 -8.29706573 14.34320641 C-8.30250013 12.33840686 -8.29448904 10.33358406 -8.28570557 8.32879639 C-8.28495152 7.204963 -8.28419746 6.08112961 -8.28342056 4.92324066 C-7.77229371 -0.41780529 -4.62031718 0.05120822 0 0 Z " fill="#F49721" transform="translate(302.03173828125,538.7067260742188)"/>
<path d="M0 0 C4.29 0 8.58 0 13 0 C14.74168182 3.7495257 16.48326253 7.49909806 18.22460938 11.2487793 C18.81407234 12.51801069 19.40358851 13.78721738 19.99316406 15.05639648 C20.27643555 15.66620361 20.55970703 16.27601074 20.8515625 16.90429688 C21.13537781 17.515242 21.41919312 18.12618713 21.71160889 18.75564575 C22.2844532 19.98966943 22.85675892 21.22394326 23.42852783 22.45846558 C24.86606507 25.56214848 26.31022515 28.66237332 27.76855469 31.75634766 C28.31672852 32.92601074 28.86490234 34.09567383 29.4296875 35.30078125 C30.1719458 36.87533081 30.1719458 36.87533081 30.92919922 38.48168945 C32 41 32 41 32 43 C32.66 43 33.32 43 34 43 C34.17255814 42.44679581 34.34511627 41.89359161 34.52290344 41.32362366 C36.26244659 35.90815278 38.3344912 30.80828092 40.79296875 25.68359375 C41.14386063 24.94166275 41.4947525 24.19973175 41.85627747 23.43531799 C42.96189408 21.100403 44.07454878 18.76892634 45.1875 16.4375 C45.94513266 14.84071828 46.70229827 13.24371487 47.45898438 11.64648438 C49.30060938 7.76174349 51.14854777 3.88006626 53 0 C57.29 0 61.58 0 66 0 C66 24.42 66 48.84 66 74 C62.04 74 58.08 74 54 74 C53.67 59.15 53.34 44.3 53 29 C45.575 44.84 45.575 44.84 38 61 C34.7 61 31.4 61 28 61 C27.65219482 60.27409668 27.30438965 59.54819336 26.94604492 58.80029297 C25.36038255 55.49161283 23.77394852 52.18330326 22.1875 48.875 C21.64029297 47.73289062 21.09308594 46.59078125 20.52929688 45.4140625 C19.99755859 44.30546875 19.46582031 43.196875 18.91796875 42.0546875 C18.43094482 41.03874512 17.9439209 40.02280273 17.44213867 38.97607422 C15.98635486 35.97184117 14.49296502 32.98593003 13 30 C12.67 44.52 12.34 59.04 12 74 C8.04 74 4.08 74 0 74 C0 49.58 0 25.16 0 0 Z " fill="#F59A20" transform="translate(331,767)"/>
<path d="M0 0 C3.3 0 6.6 0 10 0 C13.0219902 6.60819262 15.66655937 13.27928917 18.15234375 20.10546875 C18.5343544 21.14713699 18.91636505 22.18880524 19.30995178 23.26203918 C20.52201637 26.56947926 21.72975928 29.87847894 22.9375 33.1875 C23.74387081 35.38877073 24.55050918 37.58994347 25.35742188 39.79101562 C27.25046806 44.95848333 29.13679193 50.12835649 31.01776123 55.30023193 C31.63767177 57.00410959 32.25851707 58.70764771 32.88067627 60.41070557 C33.61243556 62.41459423 34.34026916 64.41984997 35.06640625 66.42578125 C35.44869385 67.47805908 35.83098145 68.53033691 36.22485352 69.61450195 C37 72 37 72 37 74 C32.71 74 28.42 74 24 74 C22.35 69.38 20.7 64.76 19 60 C5.14 59.505 5.14 59.505 -9 59 C-9.99 62.63 -10.98 66.26 -12 70 C-12.66 71.32 -13.32 72.64 -14 74 C-18.29 74 -22.58 74 -27 74 C-22.64953246 60.5814965 -17.90346333 47.32521912 -13.02172852 34.09155273 C-11.80067014 30.78042109 -10.58463082 27.4674761 -9.36914062 24.15429688 C-8.58622985 22.0259341 -7.80303712 19.89767502 -7.01953125 17.76953125 C-6.48039848 16.30070244 -6.48039848 16.30070244 -5.93037415 14.80220032 C-4.08339674 9.80299574 -2.15364092 4.87527042 0 0 Z M5 19 C3.57180601 22.94956413 2.14775072 26.90058797 0.72753906 30.85302734 C0.24365357 32.19783932 -0.24136744 33.54224328 -0.72753906 34.88623047 C-1.42550666 36.81632453 -2.11939898 38.74784137 -2.8125 40.6796875 C-3.23144531 41.84226074 -3.65039062 43.00483398 -4.08203125 44.20263672 C-5.10393205 46.82602782 -5.10393205 46.82602782 -5 49 C1.93 49 8.86 49 16 49 C12.7 39.1 9.4 29.2 6 19 C5.67 19 5.34 19 5 19 Z " fill="#F59A20" transform="translate(451,767)"/>
<path d="M0 0 C3.1875 2.25 3.1875 2.25 5 4 C3.56036361 7.35915158 1.87583411 9.71624938 -1 12 C-3.74842443 11.90522674 -5.55448569 10.71120537 -8 9.4375 C-13.10105363 7.20716919 -18.5512285 7.28122589 -24 8 C-27.07365786 9.80803404 -28.43019732 10.86039464 -30 14 C-30.47662938 18.94606977 -30.47662938 18.94606977 -28.4375 23.3125 C-22.52727827 27.40419197 -14.56695134 27.84328155 -7.62109375 29.0234375 C-1.59999904 30.64724945 2.6078741 33.7906638 6 39 C8.76970521 45.5945362 8.64888985 52.6300722 6.12890625 59.30859375 C2.58932237 65.78762446 -3.17606573 68.72535524 -10 71 C-21.85311587 72.09835238 -34.04460132 72.04874985 -43.6875 64.25 C-44.450625 63.5075 -45.21375 62.765 -46 62 C-45.09515208 60.84481082 -44.1755794 59.70114594 -43.25 58.5625 C-42.73953125 57.92441406 -42.2290625 57.28632812 -41.703125 56.62890625 C-39.75821981 54.76875611 -38.67259568 54.21527784 -36 54 C-32.9375 55.875 -32.9375 55.875 -30 58 C-26.40998391 59.19667203 -23.4095161 59.20538881 -19.625 59.25 C-18.31789063 59.27578125 -17.01078125 59.3015625 -15.6640625 59.328125 C-11.8393727 58.98561547 -10.00844733 58.32318988 -7 56 C-5.22772311 53.01935251 -4.97921571 51.34640479 -5.1875 47.875 C-6.04795173 44.83032463 -6.43084228 43.77183291 -9 42 C-12.8984874 40.51845859 -16.69400847 39.6516051 -20.81152344 39.01293945 C-28.47497389 37.80430487 -35.27238893 36.60595621 -40.359375 30.3203125 C-43.79360361 24.65148308 -43.84857441 18.43357948 -43 12 C-41.27907166 6.131441 -38.12046123 2.38143666 -33 -1 C-22.4418408 -6.30045239 -10.35745319 -5.15261537 0 0 Z " fill="#F59A20" transform="translate(555,770)"/>
<path d="M0 0 C2.74330072 1.22821101 5.11164784 2.89606754 7.5625 4.625 C9.04971901 5.63177926 10.53806045 6.63690187 12.02734375 7.640625 C12.82124512 8.18138672 13.61514648 8.72214844 14.43310547 9.27929688 C19.10120105 12.40852815 23.87031941 15.37970636 28.625 18.375 C32.09677877 20.56314421 35.55761281 22.76587969 39 25 C40.07809937 25.69258911 40.07809937 25.69258911 41.17797852 26.39916992 C42.84421162 27.51625311 44.43168712 28.74915936 46 30 C46.6875 33.5625 46.6875 33.5625 46 37 C43.46653937 39.91627437 40.72426613 41.986492 37.46484375 44.03125 C36.58151367 44.58917236 35.69818359 45.14709473 34.78808594 45.72192383 C33.84739258 46.30868896 32.90669922 46.8954541 31.9375 47.5 C30.96973633 48.10932373 30.00197266 48.71864746 29.00488281 49.34643555 C26.99983087 50.60850617 24.99346877 51.86849758 22.98583984 53.12646484 C20.11694986 54.92661707 17.25447277 56.73645345 14.39453125 58.55078125 C7.02062556 63.22628229 7.02062556 63.22628229 4.578125 64.76953125 C3.93262695 65.17792236 3.28712891 65.58631348 2.62207031 66.00708008 C-0.75443297 68.07394324 -3.01962187 68.32492883 -7 68 C-8.875 66.875 -8.875 66.875 -10 65 C-10.4375 62.0625 -10.4375 62.0625 -10 59 C-6.55566062 54.70373626 -1.68682812 52.10656307 2.9375 49.25 C3.77837158 48.7235791 4.61924316 48.1971582 5.4855957 47.65478516 C9.35128166 45.2397908 13.231285 42.85149071 17.140625 40.5078125 C17.74656494 40.14268555 18.35250488 39.77755859 18.97680664 39.40136719 C20.58816045 38.4346009 22.20599193 37.47865482 23.82421875 36.5234375 C24.54222656 36.02070312 25.26023438 35.51796875 26 35 C26 34.34 26 33.68 26 33 C23.88302969 31.39799761 23.88302969 31.39799761 21.13671875 29.76953125 C20.10353516 29.13080078 19.07035156 28.49207031 18.00585938 27.83398438 C16.91080078 27.16689453 15.81574219 26.49980469 14.6875 25.8125 C12.56613785 24.50694644 10.44504275 23.20095884 8.32421875 21.89453125 C7.2779834 21.25080566 6.23174805 20.60708008 5.15380859 19.94384766 C4.11305176 19.30237793 3.07229492 18.6609082 2 18 C0.93990723 17.34692871 -0.12018555 16.69385742 -1.21240234 16.02099609 C-2.20836426 15.39918457 -3.20432617 14.77737305 -4.23046875 14.13671875 C-5.12531982 13.58072998 -6.0201709 13.02474121 -6.94213867 12.4519043 C-9 11 -9 11 -10 9 C-10.44396083 3.78346028 -10.44396083 3.78346028 -8.9375 1.125 C-5.84898054 -0.66833388 -3.52669065 -0.32906241 0 0 Z " fill="#FEFDFA" transform="translate(95,68)"/>
<path d="M0 0 C1.81219276 -0.01429802 1.81219276 -0.01429802 3.66099548 -0.02888489 C5.62039818 -0.02751778 5.62039818 -0.02751778 7.61938477 -0.02612305 C8.97315096 -0.03001051 10.32691593 -0.03434529 11.68067932 -0.03910828 C14.51779128 -0.04656887 17.3547788 -0.04628051 20.19189453 -0.04101562 C23.82478275 -0.03522203 27.45716096 -0.05214942 31.08996487 -0.0753603 C33.88583852 -0.09010406 36.68158955 -0.09096849 39.47749519 -0.08785057 C41.46723296 -0.08861265 43.45695171 -0.10248145 45.44664001 -0.11653137 C47.26356102 -0.10718819 47.26356102 -0.10718819 49.1171875 -0.09765625 C50.18291489 -0.09828568 51.24864227 -0.0989151 52.34666443 -0.0995636 C55.51611433 0.32760124 56.8982785 0.99641877 59.12329102 3.2746582 C59.62329102 6.7746582 59.62329102 6.7746582 59.12329102 10.2746582 C56.90243501 12.54462158 55.51148055 13.22032647 52.35339355 13.66233826 C50.75932678 13.67044273 50.75932678 13.67044273 49.13305664 13.67871094 C47.32097717 13.6977372 47.32097717 13.6977372 45.47229004 13.71714783 C44.17118286 13.71421219 42.87007568 13.71127655 41.52954102 13.70825195 C40.17720274 13.71281464 38.82486678 13.71812047 37.47253418 13.72413635 C34.64134284 13.73306204 31.81043366 13.73065034 28.97924805 13.72070312 C25.35406674 13.70920624 21.72985848 13.72943696 18.10480499 13.75862026 C15.31319004 13.77697948 12.52180849 13.77669063 9.73014832 13.77098274 C7.7448309 13.77075514 5.75953543 13.78765339 3.77429199 13.80479431 C2.56623901 13.79541336 1.35818604 13.78603241 0.11352539 13.77636719 C-1.48054138 13.77611794 -1.48054138 13.77611794 -3.10681152 13.77586365 C-6.58368955 13.14673198 -7.79493305 12.09263614 -9.87670898 9.2746582 C-9.81420898 5.6496582 -9.81420898 5.6496582 -8.87670898 2.2746582 C-5.41589787 -0.0325492 -4.08148033 0.01765839 0 0 Z " fill="#FEFEFC" transform="translate(159.876708984375,143.725341796875)"/>
</svg>
