<?xml version="1.0" encoding="utf-8"?>
<!-- Generator: Adobe Illustrator 25.0.0, SVG Export Plug-In . SVG Version: 6.00 Build 0)  -->
<svg version="1.1" id="Capa_1" xmlns="http://www.w3.org/2000/svg" xmlns:xlink="http://www.w3.org/1999/xlink" x="0px" y="0px"
	 viewBox="0 0 589 876.32" style="enable-background:new 0 0 589 876.32;" xml:space="preserve">
<style type="text/css">
	.st0{fill:#F59E1F;}
	.st1{fill:#F49722;}
	.st2{fill:#F59A21;}
	.st3{fill:#FFFFFF;}
</style>
<g>
	<path class="st0" d="M233,216H62c-4.97,0-9-4.03-9-9V36c0-4.97,4.03-9,9-9h171c4.97,0,9,4.03,9,9v171
		C242,211.97,237.97,216,233,216z"/>
	<g>
		<path class="st3" d="M91.01,136.5c-2.15,0-4.25-1.06-5.49-3.01c-1.93-3.03-1.03-7.05,1.99-8.97L122.89,102L87.51,79.48
			c-3.03-1.93-3.92-5.94-1.99-8.97s5.94-3.92,8.97-1.99l44,28c1.88,1.19,3.01,3.26,3.01,5.48s-1.14,4.29-3.01,5.48l-44,28
			C93.41,136.17,92.2,136.5,91.01,136.5z"/>
	</g>
	<g>
		<path class="st3" d="M212.92,157H156.5c-3.59,0-6.5-2.91-6.5-6.5s2.91-6.5,6.5-6.5h56.42c3.59,0,6.5,2.91,6.5,6.5
			S216.51,157,212.92,157z"/>
	</g>
</g>
<g>
	<path d="M113,469.71c-21.32,0-37.94-3.91-52.45-14.07c-6.53-4.57-7.21-14-1.54-19.59l0,0c4.44-4.38,11.36-4.91,16.45-1.32
		c11.04,7.77,23.25,10.36,38.05,10.36c23.6,0,37.3-10.15,37.3-27.66c0-7.87-2.28-14.46-7.1-18.78c-4.57-4.31-9.13-6.09-19.79-7.61
		l-21.31-3.04c-14.72-2.03-26.39-7.1-34.25-14.46c-8.88-8.37-13.19-19.79-13.19-34.51c0-31.46,22.83-53.03,60.39-53.03
		c17.97,0,31.91,3.46,44.31,11.35c6.58,4.18,7.45,13.46,1.89,18.93l0,0c-4.03,3.97-10.29,4.72-15.05,1.66
		c-9.39-6.05-19.95-8.09-31.92-8.09c-21.31,0-32.98,12.18-32.98,28.16c0,6.6,2.03,12.43,6.85,16.75c4.57,4.06,11.93,7.1,20.3,8.37
		l20.55,3.04c16.75,2.54,26.13,6.6,33.75,13.45c9.9,8.63,14.72,21.57,14.72,37.04C177.96,449.92,150.81,469.71,113,469.71z"/>
	<path d="M250.02,463.24V292.49c0-2.73,2.22-4.95,4.95-4.95h98.31c6.73,0,12.18,5.45,12.18,12.18v0.25
		c0,6.73-5.45,12.18-12.18,12.18h-70.91c-2.73,0-4.95,2.22-4.95,4.95v42.87c0,2.73,2.22,4.95,4.95,4.95h57.97
		c6.73,0,12.18,5.45,12.18,12.18l0,0c0,6.73-5.45,12.18-12.18,12.18h-57.97c-2.73,0-4.95,2.22-4.95,4.95v44.39
		c0,2.73,2.22,4.95,4.95,4.95h70.91c6.73,0,12.18,5.45,12.18,12.18v0.25c0,6.73-5.45,12.18-12.18,12.18h-98.31
		C252.23,468.19,250.02,465.97,250.02,463.24z"/>
	<path d="M544.34,450.43c-12.43,12.43-28.42,19.28-47.7,19.28s-35.01-6.85-47.45-19.28c-17.76-17.76-17.51-37.8-17.51-72.56
		c0-34.76-0.25-54.8,17.51-72.56c12.43-12.43,28.16-19.28,47.45-19.28s35.27,6.85,47.7,19.28c17.76,17.76,17.25,37.8,17.25,72.56
		C561.59,412.62,562.1,432.67,544.34,450.43z M523.53,321.79c-6.34-6.85-16.24-11.16-26.89-11.16s-20.55,4.31-26.89,11.16
		c-8.88,9.64-10.66,19.79-10.66,56.07c0,36.28,1.78,46.43,10.66,56.07c6.34,6.85,16.24,11.16,26.89,11.16s20.55-4.31,26.89-11.16
		c8.88-9.64,10.66-19.79,10.66-56.07C534.19,341.58,532.41,331.43,523.53,321.79z"/>
</g>
<g>
	<path class="st1" d="M194.42,696.19h-2.32c-5.36,0-10.08-3.54-11.58-8.69l-29.37-101.09l-29.17,101.07
		c-1.49,5.16-6.21,8.71-11.58,8.71h-2.3c-5.48,0-10.28-3.7-11.66-9.01L61.82,554.65c-2-7.64,3.77-15.1,11.66-15.1h0
		c5.56,0,10.4,3.8,11.71,9.2l25.04,102.78l28.99-103.19c1.46-5.2,6.2-8.79,11.61-8.79h0.87c5.4,0,10.14,3.59,11.61,8.79
		l28.99,103.19l25.04-102.78c1.32-5.4,6.15-9.2,11.71-9.2h0c7.9,0,13.66,7.46,11.66,15.1l-34.62,132.53
		C204.7,692.49,199.91,696.19,194.42,696.19z"/>
	<path class="st1" d="M294.15,691.24V544.5c0-2.73,2.22-4.95,4.95-4.95h84.59c5.83,0,10.56,4.73,10.56,10.56v0.22
		c0,5.83-4.73,10.56-10.56,10.56h-60.83c-2.73,0-4.95,2.22-4.95,4.95v35.86c0,2.73,2.22,4.95,4.95,4.95h49.61
		c5.83,0,10.56,4.73,10.56,10.56l0,0c0,5.83-4.73,10.56-10.56,10.56h-49.61c-2.73,0-4.95,2.22-4.95,4.95v37.18
		c0,2.73,2.22,4.95,4.95,4.95h60.83c5.83,0,10.56,4.73,10.56,10.56v0.22c0,5.83-4.73,10.56-10.56,10.56H299.1
		C296.37,696.19,294.15,693.97,294.15,691.24z"/>
	<path class="st1" d="M516.79,696.19h-58.41c-2.73,0-4.95-2.22-4.95-4.95V544.5c0-2.73,2.22-4.95,4.95-4.95h55.99
		c29.04,0,47.3,16.5,47.3,42.9c0,13.06-6.27,23.24-13.98,29.13c-2.7,2.06-2.52,6.12,0.28,8.04c8.97,6.13,16.12,16.7,16.12,32.35
		C564.09,680.79,544.51,696.19,516.79,696.19z M512.39,560.89h-30.25c-2.73,0-4.95,2.22-4.95,4.95v34.98c0,2.73,2.22,4.95,4.95,4.95
		h30.25c15.18,0,25.52-7.92,25.52-22.44C537.91,568.81,527.57,560.89,512.39,560.89z M514.59,627.11h-32.45
		c-2.73,0-4.95,2.22-4.95,4.95v37.84c0,2.73,2.22,4.95,4.95,4.95h32.45c16.5,0,25.74-10.12,25.74-23.98
		C540.33,637.01,531.09,627.11,514.59,627.11z"/>
</g>
<g>
	<path class="st2" d="M385.04,840.63v-48.95l-16.87,35.69h-8.23l-17.28-35.69v48.95h-11.11V767.4h11.11l21.39,45.56l20.98-45.56
		h11.11v73.22H385.04z"/>
	<path class="st2" d="M475.75,840.63l-5.04-14.71h-28.9l-5.04,14.71h-11.83l26.84-73.22h8.95l26.84,73.22H475.75z M456.52,783.96
		l-11.42,32.5h22.52L456.52,783.96z"/>
	<path class="st2" d="M535.91,841.24c-11,0-18.92-2.57-25.92-9.67l7.41-7.3c5.35,5.35,11.21,6.99,18.72,6.99
		c9.56,0,15.12-4.11,15.12-11.21c0-3.19-0.93-5.86-2.88-7.61c-1.85-1.75-3.7-2.47-8.02-3.08l-8.64-1.23
		c-5.96-0.82-10.7-2.88-13.88-5.86c-3.6-3.39-5.35-8.02-5.35-13.99c0-12.75,9.26-21.49,24.48-21.49c9.67,0,16.46,2.47,22.73,8.33
		l-7.1,6.99c-4.53-4.32-9.77-5.66-15.94-5.66c-8.64,0-13.37,4.94-13.37,11.42c0,2.67,0.82,5.04,2.78,6.79
		c1.85,1.65,4.83,2.88,8.23,3.39l8.33,1.23c6.79,1.03,10.59,2.67,13.68,5.45c4.01,3.5,5.96,8.74,5.96,15.02
		C562.24,833.22,551.24,841.24,535.91,841.24z"/>
</g>
</svg>
