<?xml version="1.0" encoding="utf-8"?>
<!-- Generator: Adobe Illustrator 25.0.0, SVG Export Plug-In . SVG Version: 6.00 Build 0)  -->
<svg version="1.1" id="Capa_1" xmlns="http://www.w3.org/2000/svg" xmlns:xlink="http://www.w3.org/1999/xlink" x="0px" y="0px"
	 viewBox="0 0 3284.5 398.44" style="enable-background:new 0 0 3284.5 398.44;" xml:space="preserve">
<style type="text/css">
	.st0{fill:#F59E1F;}
	.st1{fill:#F49722;}
	.st2{fill:#F59A21;}
	.st3{fill:#FFFFFF;}
</style>
<g>
	<g>
		<path class="st1" d="M1960.69,398.44h-4.8c-11.1,0-20.86-7.33-23.96-17.99l-60.79-209.22l-60.36,209.17
			c-3.08,10.68-12.86,18.03-23.97,18.03h-4.76c-11.35,0-21.27-7.66-24.14-18.64l-71.65-274.29c-4.13-15.81,7.8-31.26,24.14-31.26
			l0,0c11.5,0,21.52,7.87,24.24,19.04l51.82,212.71l60-213.56c3.02-10.76,12.84-18.2,24.02-18.2h1.8c11.18,0,21,7.44,24.02,18.2
			l60,213.56L2008.1,93.3c2.72-11.18,12.74-19.04,24.24-19.04h0c16.34,0,28.27,15.45,24.14,31.26l-71.65,274.29
			C1981.96,390.78,1972.04,398.44,1960.69,398.44z"/>
		<path class="st1" d="M2167.08,388.19V84.5c0-5.66,4.59-10.25,10.25-10.25h175.07c12.07,0,21.86,9.78,21.86,21.86v0.46
			c0,12.07-9.78,21.86-21.86,21.86H2226.5c-5.66,0-10.25,4.59-10.25,10.25v74.21c0,5.66,4.59,10.25,10.25,10.25h102.67
			c12.07,0,21.86,9.78,21.86,21.86v0c0,12.07-9.78,21.86-21.86,21.86H2226.5c-5.66,0-10.25,4.59-10.25,10.25v76.94
			c0,5.66,4.59,10.25,10.25,10.25h125.89c12.07,0,21.86,9.78,21.86,21.86v0.46c0,12.07-9.78,21.86-21.86,21.86h-175.07
			C2171.67,398.44,2167.08,393.85,2167.08,388.19z"/>
		<path class="st1" d="M2627.86,398.44h-120.89c-5.66,0-10.25-4.59-10.25-10.25V84.5c0-5.66,4.59-10.25,10.25-10.25h115.88
			c60.1,0,97.89,34.15,97.89,88.79c0,27.02-12.98,48.09-28.94,60.29c-5.58,4.27-5.21,12.68,0.59,16.64
			c18.57,12.69,33.36,34.55,33.36,66.95C2725.75,366.57,2685.23,398.44,2627.86,398.44z M2618.75,118.42h-62.6
			c-5.66,0-10.25,4.59-10.25,10.25v72.39c0,5.66,4.59,10.25,10.25,10.25h62.6c31.42,0,52.82-16.39,52.82-46.44
			C2671.57,134.81,2650.17,118.42,2618.75,118.42z M2623.31,255.47h-67.16c-5.66,0-10.25,4.59-10.25,10.25v78.31
			c0,5.66,4.59,10.25,10.25,10.25h67.16c34.15,0,53.27-20.94,53.27-49.63C2676.58,275.96,2657.46,255.47,2623.31,255.47z"/>
	</g>
	<g>
		<path class="st0" d="M372.38,398.25H18.62C8.34,398.25,0,389.92,0,379.63V25.87C0,15.59,8.34,7.25,18.62,7.25h353.76
			c10.28,0,18.62,8.34,18.62,18.62v353.76C391,389.92,382.66,398.25,372.38,398.25z"/>
		<g>
			<path class="st3" d="M78.63,233.79c-4.45,0-8.8-2.2-11.36-6.23c-3.99-6.27-2.14-14.58,4.13-18.56l73.2-46.58l-73.2-46.58
				c-6.27-3.99-8.11-12.3-4.13-18.56c3.99-6.27,12.3-8.11,18.56-4.13l91.03,57.93c3.88,2.47,6.23,6.75,6.23,11.34
				s-2.35,8.88-6.23,11.34l-91.03,57.93C83.59,233.11,81.1,233.79,78.63,233.79z"/>
		</g>
		<g>
			<path class="st3" d="M330.84,276.19H214.12c-7.43,0-13.45-6.02-13.45-13.45c0-7.43,6.02-13.45,13.45-13.45h116.72
				c7.43,0,13.45,6.02,13.45,13.45C344.29,270.17,338.27,276.19,330.84,276.19z"/>
		</g>
	</g>
	<g>
		<path d="M656.17,397.06c-44.28,0-78.81-8.45-108.96-30.4c-13.56-9.87-14.99-30.25-3.2-42.35v0c9.22-9.46,23.59-10.6,34.18-2.85
			c22.93,16.8,48.29,22.4,79.03,22.4c49.02,0,77.48-21.94,77.48-59.78c0-17-4.74-31.26-14.76-40.58
			c-9.49-9.32-18.97-13.16-41.11-16.45l-44.27-6.58c-30.57-4.39-54.81-15.36-71.15-31.26c-18.45-18.1-27.41-42.78-27.41-74.59
			C536,46.62,583.43,0,661.44,0c37.33,0,66.28,7.47,92.04,24.53c13.66,9.04,15.47,29.1,3.93,40.93l0,0
			c-8.37,8.58-21.38,10.2-31.26,3.58c-19.51-13.07-41.44-17.48-66.3-17.48c-44.27,0-68.52,26.32-68.52,60.88
			c0,14.26,4.22,26.87,14.23,36.2c9.49,8.77,24.77,15.36,42.16,18.1l42.69,6.58c34.79,5.48,54.29,14.26,70.1,29.07
			c20.55,18.65,30.57,46.62,30.57,80.07C791.09,354.28,734.7,397.06,656.17,397.06z"/>
		<path d="M940.78,383.07V13.99c0-5.91,4.6-10.7,10.29-10.7h204.22c13.97,0,25.3,11.79,25.3,26.32v0.55
			c0,14.54-11.33,26.32-25.3,26.32h-147.3c-5.68,0-10.29,4.79-10.29,10.7v92.67c0,5.91,4.6,10.7,10.29,10.7h120.42
			c13.97,0,25.3,11.79,25.3,26.32v0c0,14.54-11.33,26.32-25.3,26.32h-120.42c-5.68,0-10.29,4.79-10.29,10.7v95.96
			c0,5.91,4.6,10.7,10.29,10.7h147.3c13.97,0,25.3,11.79,25.3,26.32v0.55c0,14.54-11.33,26.32-25.3,26.32H951.06
			C945.38,393.77,940.78,388.98,940.78,383.07z"/>
		<path d="M1552.16,355.38c-25.83,26.87-59.03,41.68-99.09,41.68s-72.73-14.81-98.56-41.68c-36.89-38.39-36.37-81.72-36.37-156.85
			c0-75.13-0.53-118.46,36.37-156.85C1380.34,14.81,1413.02,0,1453.07,0s73.26,14.81,99.09,41.68
			c36.89,38.39,35.84,81.72,35.84,156.85C1588,273.67,1589.05,316.99,1552.16,355.38z M1508.94,77.33
			c-13.18-14.81-33.73-24.13-55.87-24.13s-42.69,9.32-55.87,24.13c-18.45,20.84-22.14,42.78-22.14,121.2
			c0,78.43,3.69,100.36,22.14,121.2c13.18,14.81,33.73,24.13,55.87,24.13s42.69-9.32,55.87-24.13
			c18.45-20.84,22.14-42.78,22.14-121.2C1531.08,120.11,1527.39,98.17,1508.94,77.33z"/>
	</g>
	<g>
		<path class="st2" d="M2929.12,392.35V281.19l-38.3,81.04h-18.68l-39.23-81.04v111.16h-25.22V226.07h25.22l48.58,103.46
			l47.64-103.46h25.22v166.28H2929.12z"/>
		<path class="st2" d="M3095.1,392.35l-11.44-33.4h-65.62l-11.44,33.4h-26.86l60.95-166.28H3061l60.95,166.28H3095.1z
			 M3051.43,263.67l-25.92,73.8h51.15L3051.43,263.67z"/>
		<path class="st2" d="M3208.71,393.75c-24.99,0-42.97-5.84-58.85-21.95l16.82-16.58c12.14,12.15,25.46,15.88,42.5,15.88
			c21.72,0,34.33-9.34,34.33-25.46c0-7.24-2.1-13.31-6.54-17.28c-4.2-3.97-8.41-5.6-18.22-7.01l-19.62-2.8
			c-13.54-1.87-24.29-6.54-31.53-13.31c-8.17-7.71-12.14-18.22-12.14-31.76c0-28.96,21.02-48.81,55.58-48.81
			c21.95,0,37.37,5.6,51.61,18.92l-16.11,15.88c-10.28-9.81-22.19-12.84-36.2-12.84c-19.62,0-30.36,11.21-30.36,25.92
			c0,6.07,1.87,11.44,6.3,15.41c4.2,3.74,10.98,6.54,18.68,7.71l18.92,2.8c15.41,2.34,24.06,6.07,31.06,12.38
			c9.11,7.94,13.54,19.85,13.54,34.1C3268.5,375.54,3243.51,393.75,3208.71,393.75z"/>
	</g>
</g>
</svg>
