<?xml version="1.0" encoding="UTF-8"?>
<svg version="1.1" xmlns="http://www.w3.org/2000/svg" width="3285" height="398">
<path d="M0 0 C1.27247894 -0.00507454 2.54495788 -0.01014909 3.85599679 -0.0153774 C5.27619942 -0.0159791 6.6964021 -0.01647817 8.1166048 -0.01688576 C9.61904572 -0.02089998 11.12148555 -0.02533814 12.62392408 -0.03016531 C16.76327479 -0.04214108 20.90261383 -0.04778158 25.04197848 -0.05234647 C29.50225092 -0.05829872 33.96250938 -0.06990947 38.42277241 -0.08063698 C49.1995497 -0.10516902 59.97633163 -0.119789 70.75312826 -0.13269705 C73.79618093 -0.13640829 76.83923314 -0.14038158 79.88228536 -0.14444971 C98.7731959 -0.16968474 117.66410715 -0.1917411 136.55503082 -0.20417786 C140.93153797 -0.20710762 145.3080451 -0.21006928 149.68455219 -0.21308327 C150.7723316 -0.21382932 151.860111 -0.21457537 152.98085342 -0.21534403 C170.60629187 -0.22800044 188.23162951 -0.26122697 205.85702082 -0.3028851 C223.94639361 -0.34528994 242.03571477 -0.36887119 260.12513715 -0.37409842 C270.28422899 -0.3775141 280.44316327 -0.38928789 290.60220623 -0.42220116 C299.25330856 -0.45018284 307.90422103 -0.46120925 316.55536511 -0.4500057 C320.96958463 -0.44481429 325.38340642 -0.44773695 329.79756832 -0.47247124 C333.8400318 -0.49493375 337.88181118 -0.49424764 341.9242864 -0.47526737 C343.38530782 -0.47246312 344.84637533 -0.47808965 346.30732252 -0.4930803 C354.302937 -0.57009474 360.8774965 -0.56491125 366.95286274 5.13701439 C370.90058065 10.1981912 372.0767606 13.81994573 372.08708382 20.15291691 C372.09154166 21.41842906 372.0959995 22.68394121 372.10059243 23.98780221 C372.10050313 25.40014439 372.10031327 26.81248656 372.10003376 28.22482872 C372.10333232 29.71901985 372.10705787 31.21321009 372.11117524 32.70739919 C372.12120427 36.82394887 372.12491348 40.94048398 372.12756455 45.05704415 C372.13146492 49.492775 372.14104343 53.92849428 372.14977741 58.36421776 C372.16954927 69.08167247 372.1796089 79.79912813 372.1885052 90.51659653 C372.19288688 95.56180045 372.19825399 100.60700333 372.20349407 105.65220642 C372.22050699 122.4204286 372.23500165 139.18865013 372.24224281 155.95687962 C372.24415275 160.30932364 372.24607308 164.66176765 372.24802876 169.01421165 C372.2485125 170.09600983 372.24899624 171.177808 372.24949463 172.29238794 C372.25779675 189.82081184 372.28313644 207.34916754 372.31560943 224.87756165 C372.34866616 242.86749405 372.36669032 260.85739177 372.36988705 278.84735471 C372.37205342 288.95052939 372.38082065 299.05360461 372.40634823 309.15674973 C372.42803627 317.76025867 372.43611498 326.363644 372.42638145 334.96717717 C372.42183126 339.35703839 372.42376464 343.74664444 372.44314289 348.13647079 C372.46073616 352.15665094 372.45980826 356.17638906 372.4442456 360.19657365 C372.44186367 361.64951574 372.44622342 363.10248812 372.45807425 364.55538382 C372.51880106 372.49324739 372.38339024 378.40865115 367.95286274 385.13701439 C363.13499243 389.71399118 359.39665235 391.38629286 352.77709103 391.39148998 C351.50138764 391.39732218 350.22568425 391.40315437 348.91132319 391.4091633 C347.49268428 391.40552997 346.07404585 391.40170558 344.65540791 391.3977108 C343.15067778 391.40073033 341.64594918 391.40461882 340.14122331 391.40930337 C336.00024362 391.41961776 331.85935017 391.41739282 327.71836329 391.41312277 C323.25473653 391.41066176 318.79113088 391.41966194 314.32751179 391.42716026 C305.58030525 391.4399269 296.83312939 391.4416985 288.0859151 391.43936 C280.97745739 391.43757881 273.869009 391.43932221 266.76055241 391.44358444 C265.24445357 391.44447723 265.24445357 391.44447723 263.69772648 391.44538805 C261.644582 391.44659977 259.59143752 391.4478139 257.53829305 391.44903042 C238.2720876 391.45991361 219.00589965 391.45773983 199.73969321 391.45164558 C182.10652794 391.44647619 164.4734179 391.45773104 146.84026356 391.47674379 C128.74408413 391.49610654 110.64793086 391.50438091 92.551741 391.50062054 C82.38830681 391.49870606 72.22491963 391.50122004 62.06149387 391.51533508 C53.40891907 391.52722997 44.75642023 391.52867511 36.10384442 391.51654492 C31.68794287 391.51064279 27.27218037 391.50959348 22.85628796 391.52154732 C18.8147206 391.53236083 14.77340916 391.52935709 10.73185401 391.51528563 C9.26888875 391.51262615 7.80590373 391.51504433 6.34295781 391.5230215 C4.35543282 391.53310779 2.36783586 391.52292643 0.38031673 391.5117445 C-0.72402002 391.51179951 -1.82835677 391.51185453 -2.96615827 391.51191121 C-8.18965173 390.87631093 -12.05811847 388.69494584 -15.35963726 384.63701439 C-15.85077007 384.04920189 -16.34190289 383.46138939 -16.84791851 382.85576439 C-19.2791572 379.37125291 -19.17392624 376.19423207 -19.17856503 372.0842905 C-19.18240617 370.81057817 -19.18624732 369.53686583 -19.19020486 368.22455615 C-19.18942457 366.8029754 -19.18854577 365.3813947 -19.18757915 363.95981407 C-19.19016201 362.45594815 -19.19317494 360.95208292 -19.19658256 359.44821864 C-19.20466515 355.30500249 -19.20644283 351.16180366 -19.20718002 347.01858056 C-19.20902838 342.5542594 -19.21657459 338.08994728 -19.22331524 333.62563133 C-19.2369078 323.8591899 -19.24292465 314.09275256 -19.2473259 304.32630324 C-19.25008663 298.23072837 -19.25432366 292.13515509 -19.25883007 286.0395813 C-19.2710237 269.1701292 -19.28132299 252.30067837 -19.28470516 235.43122196 C-19.28492473 234.35115859 -19.28514429 233.27109522 -19.28537051 232.15830265 C-19.28558879 231.07562369 -19.28580707 229.99294473 -19.28603196 228.87745732 C-19.28647543 226.68345876 -19.28692199 224.48946021 -19.28737164 222.29546165 C-19.28759307 221.20715763 -19.28781449 220.11885361 -19.28804263 218.99757067 C-19.29199177 201.35787828 -19.3094489 183.71822716 -19.33273116 166.07855072 C-19.35642949 147.97788649 -19.36890631 129.87724299 -19.37007308 111.77656299 C-19.37099067 101.60975606 -19.37676413 91.44300292 -19.39489269 81.27621078 C-19.41027316 72.61995716 -19.41542629 63.96377395 -19.40715459 55.30750927 C-19.40324085 50.88958572 -19.40421287 46.47180406 -19.41821194 42.05389786 C-19.43090751 38.01044632 -19.42979178 33.96724392 -19.41762123 29.92379294 C-19.41565667 28.46012234 -19.41877753 26.99643436 -19.42746559 25.53278824 C-19.43852278 23.54430817 -19.42929914 21.55574622 -19.41907406 19.5672617 C-19.41967115 18.46238287 -19.42026824 17.35750405 -19.42088342 16.21914405 C-18.78734941 10.99465163 -16.60551811 7.12639881 -12.54713726 3.82451439 C-11.95932476 3.33338158 -11.37151226 2.84224876 -10.76588726 2.33623314 C-7.28443369 -0.09287197 -4.10662629 0.0086749 0 0 Z " fill="#F59E1F" transform="translate(21.04713726043701,6.862985610961914)"/>
<path d="M0 0 C9.31957626 6.48001787 11.84563763 16.09178901 14.37817383 26.58520508 C14.59729966 27.47586638 14.8164255 28.36652769 15.04219151 29.28417873 C15.76852251 32.24170414 16.48781571 35.20089314 17.20703125 38.16015625 C17.72556707 40.27847814 18.24450795 42.39670091 18.76382446 44.51483154 C20.16220552 50.22400991 21.55434124 55.93469474 22.94532394 61.64567947 C24.10307238 66.39514988 25.26483136 71.14363522 26.42664814 75.89211178 C32.49580027 100.69915917 38.52294496 125.5162378 44.5078125 150.34375 C45.01972537 152.46640626 45.53164244 154.5890615 46.04356384 156.7117157 C48.21750565 165.72831184 50.38894494 174.74547985 52.54892349 183.76543236 C53.42762039 187.43208939 54.30932973 191.09801781 55.19166183 194.76380157 C55.59587972 196.4465227 55.99869519 198.12958148 56.39995193 199.81301117 C58.30030638 207.78479982 60.21627789 215.66965251 63 223.390625 C63.26878967 222.43328964 63.53757935 221.47595428 63.81451416 220.48960876 C67.29253241 208.10231354 70.77111929 195.71517804 74.25 183.328125 C74.67280935 181.82263155 74.67280935 181.82263155 75.10416031 180.28672409 C81.26995696 158.33254423 87.43691259 136.37869695 93.62109375 114.4296875 C93.83744791 113.66166683 94.05380207 112.89364616 94.27671242 112.10235214 C96.35896301 104.710758 98.44217236 97.31943969 100.53067493 89.9296093 C101.52633718 86.40638943 102.52123284 82.88295354 103.515625 79.359375 C103.8023813 78.34331869 103.8023813 78.34331869 104.09493065 77.30673599 C106.83072711 67.60675394 109.51550507 57.89395025 112.171875 48.171875 C113.12842128 44.68870334 114.08578753 41.20575804 115.04336548 37.72286987 C115.90595211 34.56849192 116.75447907 31.41057073 117.60229492 28.25219727 C118.11828388 26.37236797 118.63492425 24.4927173 119.15234375 22.61328125 C119.36916809 21.78666992 119.58599243 20.96005859 119.80938721 20.10839844 C121.72657252 13.24260689 124.84573523 6.65531471 130.4375 2.015625 C130.97246094 1.55414063 131.50742188 1.09265625 132.05859375 0.6171875 C138.98287531 -3.7575095 147.124541 -3.39284035 155 -2.609375 C162.13743198 -0.51946028 166.74349848 3.40465838 171 9.390625 C172.3311082 12.21423533 173.19244587 15.09325976 174.02685547 18.09667969 C174.27199827 18.9238084 174.51714108 19.75093712 174.76971245 20.60313034 C175.53191518 23.19394755 176.26778816 25.79119116 177 28.390625 C177.46085872 29.98870123 177.92245103 31.58656611 178.38482666 33.1842041 C179.81035479 38.14569775 181.19140696 43.11913723 182.5703125 48.09375 C183.08989777 49.95846471 183.60979906 51.82309139 184.12998962 53.68763733 C185.22949499 57.63074924 186.3271093 61.57438017 187.42312622 65.51846313 C189.14778765 71.72442709 190.87693979 77.92913369 192.60717773 84.13354492 C192.89720893 85.17356627 193.18724012 86.21358763 193.48606014 87.28512478 C194.07313786 89.39024668 194.66023599 91.49536288 195.24735451 93.6004734 C196.1295145 96.76389993 197.0112828 99.92743543 197.89299011 103.09098816 C203.24902364 122.30457967 208.64734826 141.50612324 214.0625 160.703125 C214.46088456 162.11567968 214.85926117 163.52823661 215.25762939 164.9407959 C216.74930396 170.22988913 218.24113829 175.5189372 219.73352051 180.80783081 C223.83161323 195.33282169 227.91612505 209.86163136 232 224.390625 C239.49767603 194.64581029 246.88788616 164.87673977 254.12808228 135.06827164 C254.68841573 132.7618557 255.24916842 130.45554209 255.81005859 128.14926147 C259.6407996 112.39732451 263.46186602 96.64313628 267.24997425 80.88088608 C268.98780691 73.6503127 270.73109441 66.42106776 272.47785473 59.19264603 C273.72939762 54.01143396 274.97334849 48.82847738 276.21158695 43.64407063 C276.98182013 40.42718105 277.75926969 37.21206707 278.53867531 33.99738884 C278.89755489 32.51080461 279.25348323 31.02350415 279.60614586 29.53543282 C282.66867828 16.62447841 285.35277979 5.86131534 297.0625 -1.546875 C304.43329971 -4.18641814 313.41189532 -3.78347331 320.5 -0.609375 C327.7764762 3.65614553 331.14518255 9.64382054 333.65234375 17.5078125 C334.90908419 27.92887367 331.11039365 38.43074198 328.4609375 48.3984375 C327.98708658 50.20377305 327.51392444 52.0092895 327.04139709 53.81497192 C326.026784 57.68629365 325.00745205 61.55632963 323.98434448 65.42541504 C322.34944207 71.60817315 320.72489234 77.79362309 319.10180664 83.97949219 C316.84749519 92.56772042 314.58887741 101.15480475 312.32763672 109.74121094 C309.23750373 121.4776083 306.1635881 133.21819707 303.09765625 144.9609375 C302.7440248 146.31536611 302.7440248 146.31536611 302.38324928 147.69715691 C301.43753728 151.31951647 300.49188497 154.9418916 299.54638767 158.56430721 C297.90681084 164.84526256 296.26473936 171.12556194 294.62133789 177.40551758 C290.13545187 194.54925721 285.65779554 211.69504425 281.20487976 228.84738159 C279.34621999 236.00665362 277.48412791 243.16503169 275.62128925 250.32321739 C274.10362645 256.15634827 272.5905425 261.9906412 271.0809288 267.82586002 C270.14813888 271.42682278 269.2109038 275.02661775 268.27246475 278.62611198 C267.84061639 280.28623069 267.41059336 281.94682554 266.98260117 283.60794258 C259.5276634 312.52932661 259.5276634 312.52932661 250.31201172 318.48071289 C245.0752406 321.41213084 240.57077506 322.062777 234.625 321.953125 C233.79009033 321.94289307 232.95518066 321.93266113 232.0949707 321.92211914 C224.77363 321.67024961 218.95237244 320.26935101 213.59642029 315.01319885 C209.32932231 310.3899648 207.45517387 306.07641953 205.7421875 300.078125 C205.45713348 299.13356445 205.17207947 298.18900391 204.87838745 297.21582031 C203.89901992 293.94631477 202.9487243 290.66914694 202 287.390625 C201.45363151 285.53152572 200.9072391 283.67243329 200.35992241 281.81361294 C197.81089643 273.14938102 195.31163767 264.47097306 192.81580353 255.79130173 C191.63535584 251.68901622 190.45120083 247.5878016 189.26708984 243.48657227 C189.02436152 242.64583821 188.78163319 241.80510416 188.53154945 240.93889332 C188.03372473 239.21461366 187.5358869 237.49033779 187.03803635 235.7660656 C186.27554432 233.12476659 185.51342183 230.48336119 184.75137329 227.8419342 C179.2769942 208.8694896 173.77016874 189.90649078 168.25775146 170.94506836 C167.18228428 167.24566201 166.10728526 163.54612021 165.03277588 159.84643555 C159.07819817 139.34424649 153.09883795 118.85045105 147 98.390625 C146.62346283 99.70243996 146.62346283 99.70243996 146.23931885 101.04075623 C133.45134345 145.59009658 120.64276952 190.13344111 107.78843689 234.66368484 C106.88234214 237.80268946 105.97637622 240.94173123 105.07043457 244.08078003 C104.7773793 245.09609456 104.48432404 246.11140909 104.18238831 247.15749073 C103.60225572 249.16747025 103.02220682 251.17747392 102.44224548 253.18750286 C101.07002406 257.94213481 99.69554262 262.69608785 98.31555176 267.44847107 C96.12045343 275.0121678 93.93490515 282.57567171 91.85644531 290.17236328 C91.39155197 291.84589622 91.39155197 291.84589622 90.91726685 293.55323792 C90.38456926 295.47787259 89.86366583 297.4058499 89.35983276 299.33824158 C86.91963866 308.07770951 82.83713383 314.96834779 74.83203125 319.515625 C70.15220464 321.75076607 65.89005432 321.64502941 60.8125 321.703125 C59.98685547 321.73212891 59.16121094 321.76113281 58.31054688 321.79101562 C50.92254603 321.86670042 45.83094132 319.83552887 40.25 315.015625 C36.04386151 310.10846342 33.5236619 305.73213521 31.90722656 299.45849609 C31.73006827 298.78400295 31.55290998 298.10950981 31.37038326 297.41457748 C30.78296334 295.16706624 30.21187541 292.91573305 29.640625 290.6640625 C29.22043713 289.04334726 28.79921056 287.42290101 28.37702942 285.80270386 C27.46809056 282.3055762 26.56636525 278.80669609 25.67019653 275.30627441 C24.22808189 269.67360081 22.77029694 264.04505379 21.31030273 258.41699219 C19.50803434 251.46496781 17.70975145 244.51193487 15.91652966 237.55757141 C12.63919075 224.8478033 9.33665577 212.14475085 6.01953125 199.4453125 C5.77400387 198.50523472 5.52847649 197.56515694 5.27550888 196.59659195 C4.28266105 192.7953902 3.28969797 188.9942186 2.29649544 185.19310951 C0.55568712 178.53046558 -1.18283153 171.86722749 -2.91992188 165.20361328 C-3.16681322 164.2565344 -3.41370457 163.30945553 -3.66807747 162.33367729 C-4.16787092 160.41644322 -4.66766302 158.4992088 -5.16745377 156.58197403 C-9.60019683 139.57871847 -14.04132408 122.57766833 -18.48828125 105.578125 C-19.02225928 103.53660255 -19.55623048 101.49507831 -20.0901947 99.45355225 C-22.38341198 90.6861293 -24.67699691 81.91880353 -26.97258282 73.15200043 C-27.90452913 69.59222366 -28.83577244 66.03226323 -29.76685143 62.47225952 C-30.19353742 60.84145953 -30.62052544 59.21073852 -31.0478611 57.58010864 C-32.19083606 53.21854316 -33.32549674 48.85495998 -34.45262146 44.48927307 C-35.01525641 42.33213195 -35.59321635 40.17946147 -36.17248535 38.0267334 C-36.54401101 36.61523451 -36.91523855 35.20365712 -37.28613281 33.79199219 C-37.61607239 32.5584198 -37.94601196 31.32484741 -38.28594971 30.05389404 C-39.89234753 21.81264343 -39.21055901 14.30652159 -34.55859375 7.18359375 C-26.15573838 -3.3248495 -12.14622873 -6.34104588 0 0 Z " fill="#F49721" transform="translate(1724,76.609375)"/>
<path d="M0 0 C2.1980588 0.01611552 4.3942803 0.00001064 6.59228516 -0.01904297 C32.23561185 -0.05751678 58.69563131 7.4332062 79.69775391 22.39111328 C80.68775391 23.08462891 81.67775391 23.77814453 82.69775391 24.49267578 C111.34681964 45.48794699 128.95291547 74.28514564 134.39573669 109.33877563 C138.39954384 138.01875336 137.99022529 167.07502797 137.89337158 195.96411133 C137.88249821 200.05217127 137.88295175 204.14019864 137.88337135 208.22827053 C137.88215742 260.68475796 137.88215742 260.68475796 135.44775391 280.07861328 C135.31916992 281.10986328 135.19058594 282.14111328 135.05810547 283.20361328 C131.23570884 311.84069103 121.00753559 335.00314881 101.69775391 356.39111328 C100.69808594 357.4990625 100.69808594 357.4990625 99.67822266 358.62939453 C81.53593016 377.68835023 56.33210047 390.36477082 30.69775391 395.39111328 C29.02519531 395.72755859 29.02519531 395.72755859 27.31884766 396.07080078 C-8.27272605 401.98248424 -45.8038164 395.1094015 -75.51708984 374.43408203 C-106.84367087 351.45539777 -124.27472805 322.78728102 -130.30224609 284.39111328 C-134.00864289 258.19126065 -133.49066163 231.49368826 -133.48754883 205.09667969 C-133.48746802 201.48106841 -133.49435534 197.86558507 -133.50805664 194.25 C-133.57874741 175.28428568 -133.44693263 156.37368007 -132.36865234 137.43408203 C-132.3265029 136.69092491 -132.28435345 135.94776779 -132.24092674 135.18209076 C-130.78604295 110.18849305 -126.87686139 86.37923413 -114.30224609 64.39111328 C-113.75955078 63.42173828 -113.21685547 62.45236328 -112.65771484 61.45361328 C-97.11862977 35.44171418 -71.23066281 16.21380403 -42.80224609 6.51611328 C-41.61308594 6.10498291 -41.61308594 6.10498291 -40.39990234 5.68554688 C-27.18297169 1.42705182 -13.82039696 -0.1198034 0 0 Z M-53.98583984 78.43017578 C-66.03500695 93.09073407 -70.67722574 108.92631152 -72.98974609 127.45361328 C-73.10922607 128.40260498 -73.22870605 129.35159668 -73.35180664 130.3293457 C-75.70806697 151.09890182 -75.49033811 172.07248118 -75.48754883 192.94482422 C-75.48746812 196.0542591 -75.49433965 199.16354489 -75.50805664 202.27294922 C-75.58133988 219.18296161 -75.39034521 236.03351755 -74.40380859 252.91845703 C-74.36406103 253.6171566 -74.32431347 254.31585617 -74.28336143 255.03572845 C-72.75528741 281.2186251 -68.22024398 304.11432578 -49.30224609 323.39111328 C-48.69896484 324.01888672 -48.09568359 324.64666016 -47.47412109 325.29345703 C-33.2041519 338.97401446 -12.96572077 343.89063066 6.24462891 343.60595703 C26.53870918 342.90480962 44.35873815 333.72753477 58.22509766 319.24267578 C84.33430536 289.13253104 79.88789042 241.65420374 79.88305664 204.52124023 C79.88297583 201.24579289 79.88986149 197.97048677 79.90356445 194.69506836 C82.32189275 130.37504693 82.32189275 130.37504693 55.23291016 74.73486328 C38.44540743 59.21482994 18.77312011 53.46771889 -3.70458984 54.05126953 C-22.48039192 54.93665305 -41.69013838 64.15273323 -53.98583984 78.43017578 Z " fill="#FFFFFF" transform="translate(1451.30224609375,-0.39111328125)"/>
<path d="M0 0 C0.87094781 -0.00538554 1.74189562 -0.01077108 2.63923579 -0.01631981 C5.56332913 -0.03064928 8.48697295 -0.02348326 11.41108704 -0.01637268 C13.50542567 -0.0220738 15.5997612 -0.02903706 17.6940918 -0.03717041 C23.38853711 -0.05514979 29.08282872 -0.05392391 34.77729392 -0.04822803 C39.53109056 -0.04514169 44.28485744 -0.05122275 49.03864986 -0.05726677 C60.25689617 -0.07132739 71.47506637 -0.06973919 82.6933136 -0.05836487 C94.26195182 -0.04689434 105.83035792 -0.06093801 117.39896554 -0.08776134 C127.33202995 -0.10992921 137.26502158 -0.11655289 147.19810897 -0.11068493 C153.13014231 -0.1073153 159.06202701 -0.10973047 164.99403954 -0.12693596 C170.57633583 -0.14241913 176.15828916 -0.13843398 181.74057198 -0.11963081 C183.78635468 -0.11594813 185.83216285 -0.11904402 187.87792206 -0.1295166 C190.67755267 -0.14275072 193.47605207 -0.1311573 196.27563477 -0.11352539 C197.48121309 -0.1279329 197.48121309 -0.1279329 198.71114653 -0.14263147 C206.29507374 -0.04481187 212.52384226 2.49501345 218.26777649 7.45018005 C223.37124217 13.00464968 225.61417967 20.04860687 225.89277649 27.51268005 C225.44361753 36.12836553 222.61683718 41.80338582 217.07637024 48.3447113 C208.65055422 54.9120761 199.45875495 54.95530497 189.17085266 54.87010193 C187.6504125 54.8722917 186.12997404 54.87629438 184.60954285 54.88195801 C181.35472409 54.89047691 178.10023627 54.8868056 174.84543419 54.87353516 C169.69739475 54.85309971 164.54968479 54.86321661 159.40164185 54.87779236 C148.48198992 54.90447025 137.56244698 54.89782272 126.64277649 54.88768005 C114.8348256 54.87672492 103.02704533 54.87148147 91.21912366 54.90497446 C86.10224389 54.91834363 80.98586224 54.91239655 75.86901224 54.89160919 C72.68930685 54.88262811 69.50979394 54.89009187 66.33010483 54.90202141 C64.85670001 54.90415295 63.38326679 54.89942652 61.9099102 54.88731575 C59.8978845 54.87170925 57.88570388 54.88299538 55.87365723 54.89561462 C54.185518 54.89335247 54.185518 54.89335247 52.46327496 54.89104462 C48.75376421 55.5035032 47.09510427 56.75347708 44.45527649 59.38768005 C43.5592275 62.07582703 43.32482591 63.63314469 43.30810547 66.39056396 C43.30095016 67.20218994 43.29379486 68.01381592 43.28642273 68.85003662 C43.28373383 69.73684616 43.28104492 70.6236557 43.27827454 71.53733826 C43.27170334 72.47423492 43.26513214 73.41113159 43.25836182 74.37641907 C43.23863254 77.48043394 43.2269676 80.58440047 43.21699524 83.6884613 C43.21291971 84.74837973 43.20884418 85.80829815 43.20464516 86.90033531 C43.18378695 92.50931478 43.1694836 98.1182698 43.16011047 103.72727966 C43.14904089 109.5212394 43.1146337 115.31481563 43.07493877 121.10863972 C43.04879981 125.56362627 43.04042109 130.01852101 43.03682899 134.4735775 C43.03195676 136.60940837 43.02032473 138.74523497 43.001791 140.88099098 C42.97745578 143.87091657 42.97835439 146.85984405 42.98530579 149.84983826 C42.97249573 150.7305751 42.95968567 151.61131195 42.94648743 152.51873779 C42.99228127 157.92712692 43.75189914 161.15532735 47.45527649 165.38768005 C50.46723531 166.39166633 52.46713163 166.51472403 55.61485291 166.51898193 C57.21704681 166.5249942 57.21704681 166.5249942 58.85160828 166.53112793 C60.60956223 166.53033485 60.60956223 166.53033485 62.4030304 166.52952576 C63.63746887 166.53300018 64.87190735 166.53647461 66.14375305 166.54005432 C68.83000339 166.54741656 71.51620415 166.55308742 74.20245743 166.55634499 C78.45623572 166.56226248 82.70993066 166.57881157 86.96366882 166.59768677 C88.42123599 166.60402428 89.8788032 166.6103499 91.33637047 166.61666393 C92.06638102 166.61982974 92.79639158 166.62299556 93.54852366 166.6262573 C103.45020628 166.66828619 113.3518505 166.70128555 123.25361633 166.71360779 C129.93393824 166.72200647 136.614054 166.74456583 143.29427278 166.78296345 C146.82637284 166.80266783 150.35816513 166.81514767 153.89032364 166.81012917 C157.83746865 166.80458958 161.78409694 166.82996835 165.7311554 166.85765076 C166.89097931 166.85104935 168.05080322 166.84444794 169.24577332 166.83764648 C177.52766297 166.93280881 185.21019054 168.40908712 191.26777649 174.51268005 C197.03514463 180.81654755 199.18870666 188.19681356 198.84199524 196.6493988 C197.81861729 203.89574164 194.82121271 210.3716962 189.45527649 215.38768005 C182.02752874 220.28966285 175.51911421 221.10177981 166.77290344 220.99949646 C165.54398376 221.00516129 164.31506409 221.01082611 163.04890442 221.0166626 C160.39593601 221.02549344 157.74480722 221.02548001 155.09205055 221.00983047 C150.89272859 220.98533563 146.69396189 220.99707908 142.49462891 221.01350403 C135.09776431 221.03790515 127.70115694 221.0322282 120.30427551 221.0196991 C109.16094825 221.00105988 98.01766946 221.00603904 86.87437791 221.03973329 C82.70476471 221.05120613 78.53556215 221.0468662 74.36597216 221.02971292 C71.16045998 221.01992868 67.95498244 221.02899387 64.74946594 221.03465271 C63.60279953 221.0253624 62.45613312 221.01607208 61.27471924 221.00650024 C55.27292715 221.03647256 50.65552995 221.24210046 45.45527649 224.38768005 C43.67722224 227.20318866 43.20380603 229.36786098 43.19458008 232.66940308 C43.18395287 233.9415567 43.18395287 233.9415567 43.17311096 235.2394104 C43.17558838 236.16159866 43.1780658 237.08378693 43.18061829 238.03392029 C43.17550735 239.01158356 43.17039642 239.98924683 43.16513062 240.99653625 C43.15122514 244.22984429 43.15219209 247.46293941 43.15449524 250.6962738 C43.15060891 252.94302449 43.14627438 255.18977444 43.14151001 257.43652344 C43.13404579 262.14658489 43.13434062 266.85657139 43.13960266 271.56663513 C43.14539831 277.60386841 43.12846476 283.640795 43.10525799 289.67797756 C43.09052988 294.31822505 43.08964769 298.95839852 43.09276772 303.59866524 C43.09225407 305.82461721 43.08700818 308.05057328 43.0769558 310.27650261 C43.0646265 313.38855323 43.07136224 316.50000434 43.08296204 319.61204529 C43.0753183 320.53220932 43.06767456 321.45237335 43.05979919 322.40042114 C43.09912329 327.17091719 43.21043108 330.60295899 46.45527649 334.38768005 C49.8843906 336.61250817 52.77132769 336.63804561 56.80482483 336.63923645 C58.11137024 336.64461929 59.41791565 336.65000214 60.76405334 336.6555481 C62.2102818 336.65153392 63.65650983 336.647363 65.10273743 336.64305115 C66.62727546 336.64580149 68.15181207 336.64948166 69.67634583 336.65402222 C72.95899644 336.66213325 76.24157893 336.66430289 79.52423859 336.66207504 C84.71877604 336.65924119 89.91317754 336.67359741 95.10768127 336.6910553 C109.87879896 336.73807284 124.64990762 336.76201687 139.4210968 336.76853943 C147.57950732 336.77229403 155.73776419 336.79035672 163.89610887 336.82363379 C169.05558647 336.84381856 174.21466702 336.84623224 179.37416792 336.83535361 C182.59119607 336.83273968 185.80799486 336.84678396 189.02496338 336.86543465 C190.51160087 336.87074078 191.99828103 336.86928691 193.48490143 336.86039925 C203.27997216 336.8065855 210.85078033 337.33233847 218.20527649 344.45018005 C223.34964657 349.95948257 225.59200328 356.99721995 225.95527649 364.45018005 C225.58439047 372.23878637 222.45766113 379.22458085 217.16621399 384.91893005 C210.56838853 390.58281675 203.41544878 391.53677683 195.0042572 391.53485107 C194.14344335 391.53852776 193.2826295 391.54220445 192.39573038 391.54599255 C189.50623061 391.55702114 186.61676681 391.56087179 183.72724915 391.56468201 C181.65760178 391.57094713 179.58795555 391.57759397 177.51831055 391.58459473 C171.89229482 391.60199623 166.26628759 391.61255356 160.64025164 391.62080026 C157.12649799 391.62595081 153.61274699 391.63202643 150.09899521 391.63831139 C139.10846061 391.65735863 128.11793272 391.67159239 117.12738478 391.67992336 C104.43403247 391.68970376 91.74085417 391.71604627 79.0475632 391.75642425 C69.23940049 391.78655602 59.43128776 391.80138932 49.62307966 391.80470437 C43.76321975 391.80705761 37.90354584 391.8160543 32.0437355 391.84116554 C26.53288392 391.86440065 21.02234145 391.8686978 15.51145363 391.85840416 C13.48858806 391.85790763 11.46570751 391.86426246 9.44288826 391.87796021 C6.68164079 391.89561283 3.9215107 391.88860575 1.16026306 391.87542725 C0.3594785 391.88639649 -0.44130606 391.89736574 -1.26635683 391.90866739 C-6.4381525 391.84905683 -9.52905281 390.93825848 -13.54472351 387.38768005 C-15.52598185 383.51107427 -15.79587922 380.28407767 -15.7991991 375.96392155 C-15.8050313 374.65835995 -15.81086349 373.35279835 -15.81687242 372.00767428 C-15.81323929 370.56053563 -15.80941492 369.11339746 -15.80541992 367.66625977 C-15.80844022 366.12766822 -15.81232909 364.58907818 -15.81701249 363.0504908 C-15.82731687 358.82055838 -15.82510447 354.59071049 -15.82083189 350.36077106 C-15.81836911 345.79968335 -15.82737324 341.23861623 -15.83486938 336.67753601 C-15.84763069 327.74130111 -15.84940831 318.80509623 -15.84706912 309.86885376 C-15.84528747 302.60691124 -15.84703232 295.34497785 -15.85129356 288.08303642 C-15.85188875 287.05023647 -15.85248394 286.01743651 -15.85309717 284.95333959 C-15.85430889 282.85534064 -15.85552303 280.7573417 -15.85673954 278.65934276 C-15.86762051 258.97632852 -15.8654499 239.29333141 -15.8593547 219.61031621 C-15.85418453 201.59568992 -15.86544263 183.58111769 -15.88445292 165.5665021 C-15.903815 147.07704681 -15.91209021 128.58761712 -15.90832967 110.09815162 C-15.90641521 99.71452076 -15.90892898 89.33093592 -15.9230442 78.94731331 C-15.93493819 70.10811449 -15.93638518 61.26899001 -15.92425404 52.42979021 C-15.91835151 47.91869522 -15.91730374 43.40773636 -15.92925644 38.89665031 C-15.94006844 34.76815485 -15.93706802 30.63990995 -15.92299476 26.51142644 C-15.92033487 25.01686275 -15.92275467 23.52227972 -15.93073062 22.02773494 C-15.94081394 19.99760476 -15.93063733 17.96740412 -15.91945362 15.9372797 C-15.91950864 14.80918292 -15.91956365 13.68108614 -15.91962034 12.51880461 C-15.39625256 8.14765607 -13.82161983 4.81695494 -10.89126873 1.53691006 C-7.35017355 -0.19735562 -3.8588501 -0.02846073 0 0 Z " fill="#FFFFFF" transform="translate(956.5447235107422,2.6123199462890625)"/>
<path d="M0 0 C1.12250656 -0.00571014 2.24501312 -0.01142029 3.40153503 -0.01730347 C4.63933716 -0.01842133 5.87713928 -0.01953918 7.15245056 -0.02069092 C8.45192123 -0.02565582 9.75139191 -0.03062073 11.09024048 -0.03573608 C14.66552912 -0.04887892 18.24079895 -0.05531087 21.81610799 -0.05974674 C24.05585878 -0.0626797 26.29560448 -0.06678535 28.53535271 -0.07125092 C35.55930847 -0.08494236 42.58325253 -0.09459603 49.60722071 -0.09845281 C57.68202722 -0.10291167 65.7566626 -0.12035062 73.83141714 -0.1494534 C80.08899968 -0.17121201 86.34653464 -0.18116488 92.60415453 -0.18249393 C96.332128 -0.18353361 100.05994102 -0.18925797 103.78787422 -0.20731354 C136.79045663 -0.35788976 166.38577818 3.68948276 191.10533142 27.44122314 C208.6508784 45.70413491 213.42671106 69.30449356 213.01939392 93.88653564 C212.14586506 117.89226851 200.5427751 134.974175 183.53501892 151.21856689 C181.26828277 153.60664866 180.78906399 154.85336163 180.71080017 158.14044189 C182.38827074 163.94707079 186.57633863 166.62437026 191.16001892 170.15997314 C205.85789815 181.57164967 214.25817972 199.03130633 217.33360291 217.13970947 C218.01398156 222.5523529 218.0499525 227.94139223 218.02330017 233.39044189 C218.01592834 235.17551147 218.01592834 235.17551147 218.00840759 236.99664307 C217.69845396 260.28767193 210.04407332 282.14994315 193.71080017 299.14044189 C174.38171196 317.47878023 149.03613925 324.2632916 122.96031189 324.31744385 C121.56839329 324.32371738 120.17647633 324.33036495 118.78456116 324.33735657 C114.23654826 324.35827513 109.68853546 324.36874021 105.14048767 324.37872314 C103.57082731 324.38277379 102.00116712 324.38689081 100.43150711 324.39107323 C93.06267366 324.4100897 85.69385006 324.42433404 78.32499683 324.4326852 C69.82728388 324.44247656 61.32983009 324.46886008 52.83220851 324.50918609 C46.25454674 324.53932848 39.67695944 324.55415185 33.09922993 324.55746621 C29.17380742 324.5598167 25.24866295 324.56877857 21.32331467 324.59392738 C17.63450392 324.61718383 13.94615491 324.6214515 10.25728989 324.611166 C8.26036886 324.61043382 6.26347138 324.62953676 4.26664734 324.64923096 C2.47929672 324.63881523 2.47929672 324.63881523 0.65583801 324.62818909 C-0.89434619 324.63177162 -0.89434619 324.63177162 -2.47584724 324.63542652 C-6.0295491 324.01018396 -7.70733234 322.60868578 -10.28919983 320.14044189 C-11.55373071 317.61138014 -11.41805661 315.8678807 -11.42342091 313.03569317 C-11.42787875 311.94797515 -11.43233659 310.86025712 -11.43692952 309.73957795 C-11.43665298 307.93246857 -11.43665298 307.93246857 -11.43637085 306.08885193 C-11.44188588 304.18047789 -11.44188588 304.18047789 -11.44751233 302.23355085 C-11.45754866 298.69043002 -11.46125173 295.14732613 -11.46390164 291.60419309 C-11.46779983 287.78745703 -11.47737845 283.97073444 -11.4861145 280.15400696 C-11.50589204 270.93115888 -11.51594648 261.70830969 -11.52484229 252.48544571 C-11.52922284 248.14516104 -11.53459023 243.80487759 -11.53983116 239.46459389 C-11.55684427 225.04172996 -11.57133948 210.6188668 -11.5785799 196.19599438 C-11.58048988 192.45180956 -11.5824102 188.70762474 -11.58436584 184.96343994 C-11.58484958 184.03281069 -11.58533333 183.10218143 -11.58583172 182.14335129 C-11.5941359 167.06041211 -11.61947896 151.97755214 -11.65194652 136.89464756 C-11.68498861 121.41903867 -11.70302605 105.94347007 -11.70622414 90.46782571 C-11.70839182 81.77486372 -11.71717813 73.08201726 -11.74268532 64.38908958 C-11.76435338 56.98733708 -11.77246199 49.58572815 -11.76271854 42.18394753 C-11.75816254 38.40607984 -11.76013492 34.62850864 -11.77947998 30.8506813 C-11.80025721 26.75790472 -11.79016289 22.6657905 -11.77694702 18.57298279 C-11.78791627 17.37493537 -11.79888551 16.17688794 -11.81018716 14.94253606 C-11.74729728 6.91324796 -11.74729728 6.91324796 -9.38371563 2.92590809 C-6.09992564 0.12664727 -4.24526619 0.01289928 0 0 Z M39.71080017 49.14044189 C38.21092988 52.14018248 38.53734747 55.23267498 38.51792908 58.52423096 C38.50975159 59.28541733 38.5015741 60.0466037 38.4931488 60.83085632 C38.46828886 63.35591849 38.45177612 65.88092436 38.43736267 68.40606689 C38.43203899 69.26831627 38.42671532 70.13056564 38.42123032 71.01894379 C38.39449438 75.58401094 38.37512211 80.14905072 38.36070251 84.71417236 C38.34406573 89.42654182 38.2992978 94.1382104 38.24833107 98.85031509 C38.21464956 102.47577707 38.20312406 106.10107301 38.19747543 109.72667694 C38.19076397 111.46341042 38.1755445 113.20013301 38.15158463 114.93671417 C38.11991317 117.37141208 38.11989861 119.80422432 38.12730408 122.23907471 C38.11089874 122.95306931 38.09449341 123.6670639 38.07759094 124.4026947 C38.12435167 128.16939562 38.72159841 130.63620227 40.99726868 133.57177734 C45.25966229 137.60661512 48.2765422 137.26624575 54.00132751 137.28570557 C55.27720734 137.29208542 56.55308716 137.29846527 57.86763 137.30503845 C59.26066551 137.30656863 60.65370152 137.30768179 62.04673767 137.30841064 C63.48721855 137.31162822 64.92769911 137.31499266 66.36817932 137.3184967 C69.39271296 137.32448471 72.41721806 137.32633728 75.4417572 137.32574463 C79.27865411 137.32564381 83.11536261 137.33921388 86.95221519 137.35651684 C89.93290509 137.36776041 92.9135515 137.36965998 95.89426041 137.3691349 C97.30614996 137.37029968 98.71804121 137.37463477 100.12990952 137.38246727 C117.49410347 137.46966964 135.90262499 136.35061332 149.52720642 124.35919189 C158.88471866 114.85102204 163.03451796 103.90604867 163.21080017 90.64044189 C163.02929131 78.02909401 159.38799388 67.49086615 150.71080017 58.14044189 C137.14382335 46.23608478 121.41480637 44.8198714 104.16392517 44.80450439 C102.46240632 44.79806836 100.76088855 44.79133941 99.05937195 44.78433228 C95.50907319 44.77241102 91.95887142 44.76864664 88.40855408 44.76983643 C83.8633832 44.77004052 79.31883126 44.74262324 74.77380753 44.70829201 C71.26676069 44.68605455 67.75986434 44.68199774 64.25275421 44.68305588 C62.57663062 44.6806996 60.90050289 44.67187453 59.22444916 44.65639114 C56.88384284 44.63677336 54.54459282 44.64254907 52.20396423 44.65460205 C51.51607315 44.64336304 50.82818207 44.63212402 50.1194458 44.62054443 C45.39935951 44.68224491 43.03101881 45.81949749 39.71080017 49.14044189 Z M39.71080017 186.14044189 C38.1405439 189.28095443 38.54569149 192.64189862 38.53379822 196.09088135 C38.52722702 196.91219543 38.52065582 197.73350952 38.5138855 198.57971191 C38.49413518 201.3043832 38.48248617 204.02899933 38.47251892 206.75372314 C38.46844339 207.68341604 38.46436787 208.61310894 38.46016884 209.57097435 C38.43930086 214.49150751 38.42500221 219.41201271 38.41563416 224.33258057 C38.40456717 229.41709702 38.37016606 234.50117612 38.33046246 239.58553791 C38.30432741 243.49318765 38.2959451 247.40073269 38.29235268 251.30846214 C38.28747878 253.18276104 38.275842 255.05705503 38.25731468 256.93126869 C38.2329888 259.55513871 38.23387605 262.17787079 38.24082947 264.80181885 C38.22801941 265.57551315 38.21520935 266.34920746 38.20201111 267.14634705 C38.23786707 270.86002598 38.58510722 272.94516337 40.61517334 276.09910583 C44.26081607 279.650302 47.39880812 279.29978377 52.24302673 279.31744385 C53.02062347 279.32401505 53.79822021 279.33058624 54.59938049 279.33735657 C57.18339638 279.35712579 59.76735369 279.36876794 62.35142517 279.37872314 C63.23678703 279.38279867 64.1221489 279.3868742 65.0343399 279.39107323 C69.7318295 279.41196185 74.42928976 279.42624437 79.1268158 279.43560791 C83.94814499 279.44660261 88.76900371 279.48091294 93.590168 279.52077961 C97.32061023 279.54712556 101.05094421 279.55531617 104.78147125 279.55888939 C106.55622744 279.56371902 108.33097999 279.57522764 110.10564423 279.59392738 C125.74444516 279.74830274 138.85329698 277.95661073 151.71080017 268.14044189 C152.69499939 267.39020752 152.69499939 267.39020752 153.69908142 266.62481689 C161.70181406 259.59802726 166.88000238 247.61296418 167.91172791 237.09136963 C168.01296675 234.99852254 168.03992273 232.92310694 168.02330017 230.82794189 C168.01838562 230.08665039 168.01347107 229.34535889 168.00840759 228.581604 C167.87761072 222.41134526 166.95338854 216.92012086 164.71080017 211.14044189 C164.3936908 210.30255127 164.07658142 209.46466064 163.74986267 208.60137939 C159.21124205 198.2043974 151.20744039 191.30279535 141.15611267 186.39434814 C129.67335596 182.21524961 119.06264354 181.67964293 106.99595642 181.70684814 C105.20904341 181.70227809 103.42213215 181.69697009 101.63522339 181.69096375 C97.91449272 181.68208537 94.19397737 181.68439976 90.47325134 181.69439697 C85.70954962 181.70595141 80.9465821 181.68555018 76.18297672 181.65647984 C72.50349234 181.63813925 68.82418529 181.63840478 65.14466667 181.64411736 C63.3876129 181.64427045 61.63054702 181.63823572 59.87353706 181.62582588 C57.42306636 181.6109368 54.97397207 181.62157189 52.52354431 181.63873291 C51.44267296 181.62423096 51.44267296 181.62423096 50.33996582 181.60943604 C45.53214922 181.67989094 43.08725085 182.73234669 39.71080017 186.14044189 Z " fill="#F49721" transform="translate(2507.2891998291016,73.85955810546875)"/>
<path d="M0 0 C0.85128479 -0.00570007 1.70256958 -0.01140015 2.57965088 -0.01727295 C4.37812073 -0.02667269 6.17660741 -0.0332368 7.97509766 -0.03710938 C10.65430146 -0.04670022 13.33269813 -0.07772329 16.01171875 -0.109375 C40.7291902 -0.26137216 64.69724809 4.28481341 86.953125 15.203125 C88.13003906 15.77160156 89.30695313 16.34007813 90.51953125 16.92578125 C100.28402163 21.89288586 109.14841476 27.48497787 112.953125 38.203125 C115.14373273 45.68770139 114.08241604 53.16222017 110.953125 60.203125 C106.90598169 66.16141931 101.85573798 70.90225401 94.953125 73.203125 C84.54110587 74.29839732 77.85757487 72.42218559 68.953125 67.203125 C44.49965866 53.70339056 13.71172648 48.67127032 -13.6953125 55.234375 C-29.47977111 59.79678262 -43.63589484 67.64685176 -51.8671875 82.484375 C-55.71634516 90.59177953 -58.36128852 98.2107814 -59.046875 107.203125 C-59.11261719 107.99203125 -59.17835938 108.7809375 -59.24609375 109.59375 C-59.82288977 122.87994792 -55.96732745 136.23052667 -47.22265625 146.3046875 C-42.78596796 150.68221994 -37.80261634 153.64036639 -32.296875 156.453125 C-31.67828613 156.77039551 -31.05969727 157.08766602 -30.42236328 157.41455078 C-19.60073402 162.64532561 -8.11365582 164.9462212 3.66262817 166.7829895 C6.01481941 167.15025789 8.36481238 167.52953356 10.71459961 167.91186523 C13.92224906 168.43302989 17.13044738 168.95050842 20.33935547 169.46386719 C68.99798726 177.25299719 68.99798726 177.25299719 88.953125 187.203125 C90.53867187 187.98623047 90.53867187 187.98623047 92.15625 188.78515625 C100.60119267 193.32818169 107.23262621 199.46596775 113.953125 206.203125 C114.6440625 206.88246094 115.335 207.56179687 116.046875 208.26171875 C131.79629494 224.9059921 139.20886944 250.75141575 139.953125 273.203125 C140.03046875 275.03617187 140.03046875 275.03617187 140.109375 276.90625 C140.92179827 304.98856667 133.77816834 332.82736014 114.953125 354.203125 C114.27765625 355.02167969 113.6021875 355.84023438 112.90625 356.68359375 C96.08181518 376.48607634 72.06856803 386.93734122 47.328125 393.015625 C46.54284424 393.2105957 45.75756348 393.40556641 44.94848633 393.60644531 C30.97108788 396.81859849 16.86323875 397.55758365 2.578125 397.453125 C1.81587616 397.45002319 1.05362732 397.44692139 0.26828003 397.44372559 C-11.26417984 397.38886007 -22.64909174 397.07995137 -34.046875 395.203125 C-34.8291748 395.07953613 -35.61147461 394.95594727 -36.41748047 394.82861328 C-61.34878106 390.76131587 -93.04629672 381.56499748 -110.71484375 362.0625 C-115.91852047 354.79871667 -117.17141144 346.96755334 -116.046875 338.203125 C-114.08693644 330.17781446 -109.84987927 323.65193537 -103.12109375 318.8203125 C-95.93545617 314.95008209 -86.59897613 314.74762627 -78.796875 316.79296875 C-76.71889795 317.76478129 -74.93705966 318.89882784 -73.046875 320.203125 C-42.8353288 340.63338731 -6.47604441 346.83610184 29.51708984 340.61572266 C45.61915105 337.47136651 61.73809614 330.93594461 71.640625 317.390625 C78.72958923 306.78896773 81.33829984 296.61515828 81.265625 283.953125 C81.25716553 282.42123535 81.25716553 282.42123535 81.24853516 280.85839844 C81.0301667 267.30225753 77.70489669 254.24171351 67.953125 244.203125 C49.56729936 228.26587895 23.81329309 227.49990775 0.79052734 224.20581055 C-30.05227745 219.76898612 -60.79426501 214.24650493 -85.046875 193.203125 C-86.078125 192.419375 -87.109375 191.635625 -88.171875 190.828125 C-106.06168624 174.49394952 -115.08956659 149.21938404 -116.17285156 125.4375 C-117.03918617 91.35436111 -110.49484106 62.46622338 -88.046875 36.203125 C-87.47582031 35.52894531 -86.90476562 34.85476562 -86.31640625 34.16015625 C-65.13697493 11.23845809 -30.4694975 0.16333589 0 0 Z " fill="#FFFFFF" transform="translate(653.046875,-0.203125)"/>
<path d="M0 0 C0.75323036 -0.00538554 1.50646072 -0.01077108 2.28251624 -0.01631981 C4.80819997 -0.03063492 7.33336221 -0.02348698 9.85906982 -0.01637268 C11.6693209 -0.02207455 13.47956839 -0.0290381 15.28981018 -0.03717041 C20.20942673 -0.05514115 25.12886529 -0.05392561 30.04850483 -0.04822803 C34.15621216 -0.04514059 38.26388508 -0.05122395 42.37158751 -0.05726677 C52.06519787 -0.07132441 61.75872014 -0.06974155 71.45233154 -0.05836487 C81.4475403 -0.0468933 91.44248044 -0.06094036 101.43765378 -0.08776134 C110.02124713 -0.10993087 118.60475625 -0.11655257 127.18837619 -0.11068493 C132.31387429 -0.10731584 137.43920038 -0.10972683 142.56467438 -0.12693596 C147.38776859 -0.14242197 152.21046591 -0.13843108 157.03354454 -0.11963081 C158.80077476 -0.11594895 160.56803449 -0.11904165 162.3352375 -0.1295166 C180.20148587 -0.22730469 180.20148587 -0.22730469 187.57293701 6.1337738 C188.24196045 6.9710199 188.24196045 6.9710199 188.92449951 7.82518005 C189.61672607 8.65855896 189.61672607 8.65855896 190.32293701 9.5087738 C194.2095778 15.46251336 194.35804995 21.48059492 193.54949951 28.38768005 C191.50445522 35.48577069 187.96925556 39.51389516 181.73309326 43.3290863 C177.81991027 45.22617502 174.37872612 45.51337851 170.05293274 45.51898193 C168.93557739 45.52299011 167.81822205 45.52699829 166.66700745 45.53112793 C165.44559555 45.53059921 164.22418365 45.5300705 162.96575928 45.52952576 C160.98595308 45.53485899 159.00614688 45.54019821 157.02634132 45.54576242 C154.90034304 45.55095529 152.77435093 45.55387159 150.64834785 45.55634499 C146.21496322 45.562263 141.78165851 45.57881013 137.34831238 45.59768677 C135.82966332 45.60402376 134.31101422 45.61034939 132.79236507 45.61666393 C131.6517255 45.62141265 131.6517255 45.62141265 130.48804271 45.6262573 C120.16894273 45.66831716 109.84988073 45.70131853 99.53070068 45.71360779 C92.5665823 45.72198658 85.60266264 45.74446779 78.63864368 45.78296345 C74.95466439 45.80272562 71.27098218 45.81512816 67.58694649 45.81012917 C63.47856533 45.80462188 59.37092526 45.82987667 55.26263428 45.85765076 C54.04324661 45.85104935 52.82385895 45.84444794 51.56752014 45.83764648 C45.151877 45.85937878 45.151877 45.85937878 39.31742859 48.23330688 C36.1354599 52.11080857 36.40114559 55.92953767 36.40423584 60.70140076 C36.40087723 61.44322601 36.39751862 62.18505127 36.39405823 62.94935608 C36.38455235 65.40407482 36.38260516 67.8587253 36.38153076 70.3134613 C36.37831743 72.02115914 36.3749533 73.7288567 36.3714447 75.43655396 C36.36545399 79.01849506 36.36360469 82.60041203 36.36419678 86.18235779 C36.36429828 90.76552532 36.35065786 95.34853753 36.33342457 99.93166828 C36.322288 103.46019191 36.3202781 106.98867823 36.3208065 110.51721764 C36.31962844 112.20645367 36.31521638 113.89569073 36.30747414 115.58490944 C36.29764277 117.95197434 36.30056483 120.31870512 36.30657959 122.68577576 C36.30096008 123.37949783 36.29534058 124.07321991 36.28955078 124.78796387 C36.31670907 129.00822464 36.79688794 132.52889605 38.54949951 136.38768005 C41.35014621 137.32122895 43.06012732 137.51818542 45.95652771 137.53244019 C47.30846474 137.54278793 47.30846474 137.54278793 48.68771362 137.55334473 C49.6742392 137.5559581 50.66076477 137.55857147 51.67718506 137.56126404 C52.71815842 137.56795105 53.75913177 137.57463806 54.83164978 137.58152771 C57.09553031 137.59558953 59.35942512 137.60747997 61.62332726 137.61747551 C65.20894397 137.63387776 68.79445552 137.65711707 72.38002014 137.68237305 C82.57602701 137.75315893 92.77207754 137.8131891 102.96820068 137.86448669 C109.20275286 137.89633354 115.43718536 137.93762743 121.6716404 137.98468208 C124.04580335 138.00067214 126.41999388 138.01300749 128.79419518 138.02158928 C132.12120027 138.03378528 135.44792581 138.05795484 138.77484131 138.08470154 C139.75124573 138.08529068 140.72765015 138.08587982 141.73364258 138.08648682 C149.97915895 138.17402606 156.89605205 139.06492208 163.54949951 144.38768005 C168.54501359 149.61026295 170.56238828 153.98633294 170.98699951 161.13768005 C170.827548 167.01966913 169.07433502 171.6797963 165.54949951 176.38768005 C160.55875293 180.69667842 155.72394961 183.50442639 149.0463562 183.52571106 C148.12390106 183.5311644 147.20144592 183.53661774 146.2510376 183.54223633 C144.73612732 183.54379982 144.73612732 183.54379982 143.19061279 183.5453949 C142.12531342 183.55047562 141.06001404 183.55555634 139.96243286 183.56079102 C137.64615835 183.57150082 135.32987345 183.5801186 133.01358414 183.58691025 C129.34897677 183.5986845 125.68448803 183.61813318 122.01992798 183.64002991 C111.59964941 183.70169923 101.17938297 183.75572382 90.75897217 183.78904724 C84.38823193 183.80997066 78.01770782 183.84525498 71.64709091 183.88980484 C69.21742163 183.90398307 66.78771411 183.91269137 64.35800552 183.91585922 C60.96083141 183.92075764 57.56423283 183.94388868 54.16717529 183.97117615 C53.16128357 183.96817001 52.15539185 183.96516388 51.11901855 183.96206665 C44.28780229 183.97424617 44.28780229 183.97424617 38.54949951 187.38768005 C36.1761238 191.42420111 36.26474378 195.54976004 36.29071045 200.11204529 C36.28720581 200.87366974 36.28370117 201.63529419 36.28009033 202.41999817 C36.27131332 204.92885041 36.27710845 207.43741887 36.28387451 209.9462738 C36.28252656 211.69595392 36.28058495 213.44563367 36.27807617 215.1953125 C36.27513025 218.85948763 36.27940493 222.52356512 36.28875732 226.18772888 C36.3001431 230.87622839 36.29359457 235.56449869 36.2816124 240.25298977 C36.27437224 243.86558751 36.27669177 247.47813126 36.28186798 251.09073067 C36.28319895 252.81903676 36.28157617 254.54734781 36.27690887 256.27564812 C36.2718091 258.69520349 36.27960247 261.1143921 36.29071045 263.53392029 C36.28666199 264.24320175 36.28261353 264.95248322 36.27844238 265.68325806 C36.31447586 269.93688166 36.77823965 273.49888738 38.54949951 277.38768005 C41.58765269 278.40039778 43.64382044 278.51956131 46.82296753 278.53244019 C47.91633926 278.53933868 49.009711 278.54623718 50.13621521 278.55334473 C51.93624748 278.55726479 51.93624748 278.55726479 53.77264404 278.56126404 C55.71254324 278.57152924 57.65244242 278.58179656 59.59234118 278.59214318 C61.6789802 278.60237485 63.76561682 278.61022629 65.85226822 278.61747551 C70.20686047 278.63294332 74.56138038 278.65689503 78.91592407 278.68237305 C91.2992698 278.75352641 103.68265755 278.81323643 116.06610107 278.86448669 C122.90458187 278.8928637 129.74299121 278.92828805 136.58139694 278.97114044 C140.90335105 278.99780174 145.22522437 279.01577544 149.54724431 279.02717769 C152.88154763 279.03851336 156.21573881 279.06261824 159.54998779 279.08470154 C160.73786392 279.08529068 161.92574005 279.08587982 163.14961243 279.08648682 C173.58389179 279.17781758 181.00067448 279.7838743 188.66278076 287.2587738 C193.56493502 292.7901901 194.10711095 298.31646073 193.89324951 305.4540863 C193.06543039 312.51876993 189.73734144 316.76211776 184.33074951 321.16111755 C179.89520951 324.21541484 176.33992674 324.67992396 171.00288391 324.66183472 C170.23936975 324.6670714 169.47585559 324.67230807 168.68920463 324.67770344 C166.12899287 324.69271377 163.56898078 324.69340881 161.00872803 324.69407654 C159.17390607 324.70169722 157.33908731 324.71012456 155.50427246 324.71929932 C150.51878926 324.74125757 145.5333674 324.75004477 140.54784131 324.75512576 C137.43410274 324.75876714 134.3203803 324.765006 131.20664787 324.77212715 C120.34688484 324.79662428 109.48716962 324.80967454 98.62738037 324.81321716 C88.49916084 324.81685475 78.37124391 324.84676544 68.24311692 324.88862175 C59.55087509 324.9232868 50.85873376 324.93876493 42.16642326 324.9394632 C36.97333107 324.94025717 31.78054719 324.94905142 26.58752632 324.97746086 C21.70448645 325.00357731 16.82201197 325.00588273 11.93893433 324.98980522 C10.14624235 324.98798572 8.35351833 324.9947265 6.56089592 325.01062393 C4.11428993 325.03099948 1.66967819 325.02058499 -0.77690125 325.00241089 C-1.84237321 325.02221084 -1.84237321 325.02221084 -2.92936987 325.04241079 C-6.75947291 324.97737099 -8.34638871 324.4715848 -11.36760044 322.03675938 C-14.26277582 318.35460994 -14.57585076 315.76539744 -14.58192825 311.22235298 C-14.58768997 309.60868975 -14.58768997 309.60868975 -14.59356809 307.96242726 C-14.5927016 306.77616431 -14.59183512 305.58990135 -14.59094238 304.36769104 C-14.59391351 303.11092147 -14.59688463 301.8541519 -14.59994578 300.5592984 C-14.6080235 297.06404069 -14.60980578 293.56880352 -14.61054325 290.07353759 C-14.61239244 286.30658271 -14.61993904 282.53963853 -14.62667847 278.77268982 C-14.64026725 270.53312658 -14.6462872 262.29356819 -14.65068913 254.05399561 C-14.65345032 248.91122363 -14.65768742 243.76845354 -14.6621933 238.62568283 C-14.6743861 224.39235871 -14.68468577 210.1590361 -14.68806839 195.92570686 C-14.68828796 195.01454577 -14.68850752 194.10338468 -14.68873374 193.16461264 C-14.68895202 192.25125026 -14.6891703 191.33788788 -14.68939519 190.39684784 C-14.68983866 188.5459729 -14.69028522 186.69509796 -14.69073486 184.84422302 C-14.69095629 183.92612173 -14.69117772 183.00802044 -14.69140586 182.06209789 C-14.69535537 167.17969993 -14.71281398 152.2973509 -14.73609439 137.41497184 C-14.75979224 122.14273317 -14.77226951 106.87051907 -14.77343631 91.59826171 C-14.77435389 83.02047364 -14.78012718 74.44274933 -14.79825592 65.86497879 C-14.81363572 58.56207963 -14.81878991 51.25926392 -14.81051782 43.95635165 C-14.80660391 40.22915804 -14.80757682 36.50213261 -14.82157516 32.77495956 C-14.83660211 28.73706289 -14.82846971 24.69954725 -14.81799316 20.66163635 C-14.82604957 19.47983484 -14.83410597 18.29803334 -14.84240651 17.08041966 C-14.83581667 15.99942868 -14.82922682 14.91843769 -14.82243729 13.80468941 C-14.82303437 12.87258333 -14.82363146 11.94047726 -14.82424664 10.98012555 C-14.25918717 7.06065811 -12.44149156 4.41690215 -9.72865677 1.59941006 C-6.52767865 -0.10316024 -3.53751318 -0.03025487 0 0 Z " fill="#F39721" transform="translate(2180.4505004882813,73.61231994628906)"/>
<path d="M0 0 C8.58 0 17.16 0 26 0 C37.57211459 22.91278689 48.58143794 46.0860358 59.33398438 69.39306641 C62.02343046 75.21573295 64.72667321 81.03198389 67.4291687 86.84860229 C68.82442602 89.85193645 70.21882028 92.85567102 71.61328125 95.859375 C72.30611206 97.35162598 72.30611206 97.35162598 73.01293945 98.87402344 C73.50153442 99.92638184 73.50153442 99.92638184 74 101 C79.88123764 89.42624355 85.44437367 77.72855899 90.875 65.9375 C91.69437545 64.16299143 92.51395959 62.38857922 93.33374023 60.61425781 C95.03062169 56.94055111 96.72603675 53.26617268 98.42041016 49.59130859 C100.57325008 44.92313007 102.73079103 40.25714377 104.89031982 35.59205627 C106.55135503 32.00382587 108.21124618 28.41506698 109.87091064 24.82620239 C110.66074384 23.11859217 111.45090119 21.41113185 112.24139404 19.7038269 C113.34057433 17.32917277 114.4380854 14.95375427 115.53515625 12.578125 C115.85824265 11.88100906 116.18132904 11.18389313 116.51420593 10.46565247 C118.11057408 7.00432838 119.58290984 3.54272541 121 0 C129.91 0 138.82 0 148 0 C148 55.11 148 110.22 148 167 C139.09 167 130.18 167 121 167 C120.67 132.68 120.34 98.36 120 63 C110.67590246 82.23095118 101.38292359 101.42345005 92.45605469 120.83398438 C89.97655544 126.22535698 87.48724604 131.612197 85 137 C78.07 137 71.14 137 64 137 C60.63951812 130.15870119 57.28063783 123.316619 53.9230957 116.47387695 C52.78614146 114.15726671 51.64878659 111.84085304 50.51098633 109.5246582 C43.22595983 94.69385083 36.00953223 79.83339472 28.91401672 64.91090393 C28.28775009 63.60158941 27.64907848 62.29815697 27 61 C26.67 95.98 26.34 130.96 26 167 C17.42 167 8.84 167 0 167 C0 111.89 0 56.78 0 0 Z " fill="#F49A21" transform="translate(2806,225)"/>
<path d="M0 0 C6.93 0 13.86 0 21 0 C24.28565137 7.7636386 27.3773431 15.54886942 30.23046875 23.48046875 C30.81204994 25.08561592 30.81204994 25.08561592 31.40538025 26.72319031 C32.23624807 29.01706833 33.06587273 31.31139697 33.89434814 33.60614014 C35.89472078 39.14613471 37.90313842 44.68320927 39.91126251 50.22039795 C40.59964909 52.11877694 41.28771936 54.01727037 41.97576904 55.91577148 C46.32554976 67.91444512 50.71925447 79.89678359 55.125 91.875 C55.85297982 93.85578183 56.58092582 95.83657609 57.30883789 97.81738281 C60.80795126 107.33638017 64.31382544 116.85285241 67.82791138 126.36633301 C69.52073327 130.95056942 71.21116438 135.53568554 72.90130615 140.12091064 C73.71246409 142.3193999 74.52482824 144.5174445 75.33843994 146.71502686 C76.46027152 149.745164 77.57821367 152.77670927 78.6953125 155.80859375 C79.03183838 156.71436661 79.36836426 157.62013947 79.71508789 158.55335999 C80.01809814 159.37807297 80.3211084 160.20278595 80.63330078 161.05249023 C80.89877716 161.77073471 81.16425354 162.48897919 81.43777466 163.22898865 C82 165 82 165 82 167 C72.76 167 63.52 167 54 167 C52.43050956 162.62275231 50.86294559 158.24491382 49.30029297 153.86523438 C48.76789857 152.37491984 48.23437445 150.88500839 47.69970703 149.39550781 C46.93225901 147.25690498 46.16885919 145.11689483 45.40625 142.9765625 C45.04533264 141.97491562 45.04533264 141.97491562 44.67712402 140.95303345 C43 136.22774341 43 136.22774341 43 134 C21.55 134 0.1 134 -22 134 C-22.99 137.63 -23.98 141.26 -25 145 C-26.17664736 148.53764939 -27.37280947 152.05265239 -28.625 155.5625 C-29.09292969 156.8937793 -29.09292969 156.8937793 -29.5703125 158.25195312 C-31.84653003 164.69306006 -31.84653003 164.69306006 -33 167 C-42.24 167 -51.48 167 -61 167 C-57.62493093 155.74976978 -57.62493093 155.74976978 -55.83374023 150.85913086 C-55.43089813 149.75486252 -55.02805603 148.65059418 -54.61300659 147.51286316 C-54.18255035 146.34201675 -53.75209412 145.17117035 -53.30859375 143.96484375 C-52.84636303 142.70116499 -52.38438434 141.43739402 -51.92263794 140.17353821 C-50.68739675 136.79481778 -49.44857532 133.41742086 -48.20897293 130.04029846 C-46.90745273 126.49275381 -45.60909345 122.94405244 -44.31030273 119.39550781 C-41.94899361 112.94556961 -39.58463781 106.49675331 -37.21876812 100.04848671 C-35.2133189 94.58235581 -33.21034975 89.11531889 -31.20794678 83.64807129 C-23.49869273 62.60190032 -15.74597224 41.57206887 -7.9375 20.5625 C-7.58889923 19.62369995 -7.24029846 18.6848999 -6.88113403 17.71765137 C-5.91031957 15.104257 -4.93789953 12.49146679 -3.96484375 9.87890625 C-3.53345596 8.71721672 -3.53345596 8.71721672 -3.09335327 7.53205872 C-1.11531091 2.23062182 -1.11531091 2.23062182 0 0 Z M11 41 C7.56610404 49.00421681 4.47193974 57.06405109 1.64453125 65.30078125 C1.25682053 66.4213945 0.8691098 67.54200775 0.46965027 68.69657898 C-0.34128659 71.04294798 -1.15040585 73.38994591 -1.95776367 75.73754883 C-3.19076897 79.32200317 -4.42988575 82.90430076 -5.66992188 86.48632812 C-6.46129525 88.77852235 -7.25232303 91.07083593 -8.04296875 93.36328125 C-8.41068893 94.42694412 -8.77840912 95.49060699 -9.15727234 96.58650208 C-9.67339836 98.0892292 -9.67339836 98.0892292 -10.19995117 99.62231445 C-10.50019699 100.49435013 -10.80044281 101.3663858 -11.10978699 102.2648468 C-12.1574272 105.48369043 -13.07005765 108.74520176 -14 112 C2.17 112 18.34 112 35 112 C33.77247222 106.47612499 32.64060353 101.55405975 30.84521484 96.28686523 C30.42493011 95.04625839 30.00464539 93.80565155 29.57162476 92.52745056 C29.11816487 91.20446314 28.66460007 89.88151168 28.2109375 88.55859375 C27.74255756 87.18154205 27.27459787 85.80434735 26.80703735 84.42701721 C25.58482315 80.83030309 24.35696926 77.23554 23.12786865 73.64117432 C21.87084855 69.96183012 20.6192576 66.28064033 19.3671875 62.59960938 C16.91672197 55.39793828 14.4602863 48.19832277 12 41 C11.67 41 11.34 41 11 41 Z " fill="#F59A20" transform="translate(3039,225)"/>
<path d="M0 0 C2.27734375 1.96484375 2.27734375 1.96484375 5.27734375 5.96484375 C-0.00265625 11.24484375 -5.28265625 16.52484375 -10.72265625 21.96484375 C-13.77156437 20.44038969 -16.17771527 18.98335341 -18.91015625 17.02734375 C-30.30445383 9.33103072 -44.45160659 8.53320128 -57.77734375 10.390625 C-64.79122739 12.17140854 -70.12538821 16.01024636 -74.10546875 22.0703125 C-77.21081906 28.20500804 -78.08950735 34.57249078 -76.02734375 41.19921875 C-73.50251461 46.84295447 -70.01143443 50.60746573 -64.28320312 52.97167969 C-56.19291959 55.75462602 -48.17351391 57.22709187 -39.72265625 58.46484375 C-23.24005204 60.87896255 -7.56244297 64.259677 3.27734375 77.96484375 C8.7662471 86.86065262 10.6585513 95.51604371 10.58984375 105.83984375 C10.5842041 106.72462402 10.57856445 107.6094043 10.57275391 108.52099609 C10.33910168 121.06187463 6.18438437 130.95105611 -2.41015625 140.21484375 C-16.23263598 153.24896912 -35.86413911 156.66381521 -54.19140625 156.2109375 C-74.10874694 155.33759861 -92.32836762 150.30292561 -106.91015625 135.96484375 C-107.50828125 135.30484375 -108.10640625 134.64484375 -108.72265625 133.96484375 C-107.34182727 130.81727726 -105.7746647 128.82600403 -103.24609375 126.51171875 C-102.57578125 125.89296875 -101.90546875 125.27421875 -101.21484375 124.63671875 C-100.51617188 124.0025 -99.8175 123.36828125 -99.09765625 122.71484375 C-98.39125 122.06515625 -97.68484375 121.41546875 -96.95703125 120.74609375 C-95.21693447 119.1470859 -93.47208963 117.55362136 -91.72265625 115.96484375 C-90.97604736 116.54927246 -90.97604736 116.54927246 -90.21435547 117.14550781 C-74.50223711 129.22259429 -59.24560717 132.2924725 -39.72265625 130.96484375 C-31.68950829 129.72300445 -24.33155703 126.30958833 -19.28515625 119.83984375 C-15.65784564 113.16559222 -15.39171077 104.70272032 -17.44140625 97.40625 C-20.36298847 91.17432665 -24.63263776 88.07981746 -31.06884766 85.72094727 C-37.64478607 83.84737953 -44.5880405 83.21590463 -51.35864258 82.31347656 C-68.47053101 80.00297641 -84.73843412 76.08107241 -96.25390625 62.1484375 C-104.21019907 50.31980004 -104.66584234 34.03609964 -102.0390625 20.421875 C-101.11941334 17.77740668 -100.05950023 15.42264387 -98.72265625 12.96484375 C-98.28695312 12.09859375 -97.85125 11.23234375 -97.40234375 10.33984375 C-90.86920823 -1.65542147 -80.1347258 -7.86040574 -67.4453125 -12.140625 C-44.44300956 -17.96641635 -19.07940383 -14.14845658 0 0 Z " fill="#F59A20" transform="translate(3256.72265625,238.03515625)"/>
<path d="M0 0 C3.47471771 1.46664182 6.4998693 3.46464058 9.625 5.5625 C10.97428589 6.43237549 10.97428589 6.43237549 12.35083008 7.31982422 C15.24726445 9.19353243 18.12390877 11.09524344 21 13 C22.94818149 14.27372334 24.89740147 15.5458597 26.84765625 16.81640625 C29.77035462 18.7213357 32.69187118 20.62786918 35.60839844 22.54223633 C42.18703205 26.85381792 48.84206634 31.00969507 55.57275391 35.07861328 C62.04571624 39.00033815 68.40273852 43.08522202 74.734375 47.23046875 C77.70012793 49.16924351 80.69112275 51.05970332 83.703125 52.92578125 C84.47454834 53.40917969 85.24597168 53.89257812 86.04077148 54.390625 C87.51070917 55.31065908 88.98647286 56.22147708 90.46899414 57.12109375 C95.27564703 60.1523477 99.08453527 63.33814107 100.53125 69.125 C100.44660265 74.20384102 99.49249453 77.09173231 96 81 C89.53899329 85.92259968 82.61648255 90.23450478 75.75 94.5625 C73.80725243 95.7929068 71.86454523 97.02337735 69.921875 98.25390625 C68.44750977 99.18614014 68.44750977 99.18614014 66.94335938 100.13720703 C62.28977515 103.08236692 57.64518853 106.04162341 53 109 C51.17061311 110.16412566 49.34118592 111.328188 47.51171875 112.4921875 C42.87175887 115.4448143 38.23254723 118.39861138 33.5949707 121.35498047 C31.75317356 122.52660715 29.90928514 123.69495336 28.06323242 124.85986328 C23.58641706 127.68846787 19.15329298 130.55843172 14.78125 133.546875 C13.94360107 134.10745605 13.10595215 134.66803711 12.24291992 135.24560547 C10.6822937 136.29187562 9.13417741 137.35719286 7.6027832 138.44580078 C1.92455135 142.20716907 -3.23996693 143.08908643 -10 142 C-13.46213606 140.32132297 -15.44468543 137.95917972 -17.375 134.625 C-18.49968785 129.90131102 -18.77722416 126.44757999 -16.4375 122.08984375 C-13.53631619 118.41222133 -10.5877393 116.405669 -6.625 114 C-5.88531982 113.53634033 -5.14563965 113.07268066 -4.38354492 112.5949707 C-2.77504531 111.58681371 -1.16350786 110.58349093 0.45068359 109.58447266 C3.96601991 107.39959115 7.4522254 105.17012967 10.94018555 102.94189453 C13.72037504 101.16650649 16.50421573 99.39697865 19.2890625 97.62890625 C23.14077978 95.18268842 26.98958272 92.73198468 30.8359375 90.27734375 C40.50995712 84.10583127 50.19281457 77.95832775 60 72 C57.28553412 69.12086768 54.60882486 66.95539139 51.23828125 64.890625 C50.29694336 64.30909668 49.35560547 63.72756836 48.38574219 63.12841797 C47.37157227 62.50854004 46.35740234 61.88866211 45.3125 61.25 C43.13598828 59.90482703 40.96023054 58.55843348 38.78515625 57.2109375 C37.66383301 56.51709961 36.54250977 55.82326172 35.38720703 55.10839844 C26.86590036 49.80423205 18.43551643 44.35620711 9.99658203 38.92236328 C7.04530897 37.02906655 4.08443392 35.15168258 1.12109375 33.27734375 C-0.69024796 32.12262135 -2.50145319 30.96768485 -4.3125 29.8125 C-5.1365332 29.29606934 -5.96056641 28.77963867 -6.80957031 28.24755859 C-11.62520121 25.15792003 -15.37785752 22.24428497 -18 17 C-18.55004295 11.27955337 -17.64364029 8.43145441 -14 4 C-9.80188041 -0.55795841 -5.89546775 -0.9373788 0 0 Z " fill="#FEFEFC" transform="translate(85,91)"/>
<path d="M0 0 C1.0401828 -0.00708481 2.0803656 -0.01416962 3.15206909 -0.02146912 C4.2877533 -0.0189917 5.4234375 -0.01651428 6.59353638 -0.01396179 C8.39412003 -0.02162819 8.39412003 -0.02162819 10.2310791 -0.02944946 C13.52044352 -0.04096817 16.80965168 -0.04341887 20.09903097 -0.04088616 C22.84744856 -0.03981575 25.59584295 -0.04470173 28.34425557 -0.04949158 C34.83036163 -0.06058469 41.31640979 -0.06102559 47.80252075 -0.05497742 C54.48722915 -0.04893973 61.17172695 -0.06124373 67.85639942 -0.08254749 C73.6009136 -0.10017987 79.34536085 -0.10616219 85.08990109 -0.10290974 C88.51846678 -0.10109901 91.94688231 -0.10371171 95.37542343 -0.11762428 C99.20089716 -0.12995179 103.02588304 -0.12321831 106.85134888 -0.11161804 C107.98298462 -0.11926178 109.11462036 -0.12690552 110.2805481 -0.13478088 C115.87515688 -0.09725794 120.0516231 0.03080225 124.85183716 3.26069641 C127.73821325 6.3786 128.76767791 9.66106178 129.35183716 13.82319641 C128.6287313 18.79454922 126.53011309 21.78584786 122.78933716 25.07319641 C119.44266652 27.12438164 116.69439193 27.3895982 112.8618927 27.40786743 C111.31630173 27.41860039 111.31630173 27.41860039 109.73948669 27.42955017 C108.04459358 27.43358353 108.04459358 27.43358353 106.31546021 27.43769836 C104.52972595 27.44755516 104.52972595 27.44755516 102.70791626 27.45761108 C98.75980267 27.47735697 94.81170236 27.4890107 90.86355591 27.49897766 C89.50318697 27.50302605 88.14281824 27.507143 86.78244972 27.51132774 C80.39123778 27.53037347 74.00003735 27.54460615 67.6088025 27.55293971 C60.2362211 27.56271219 52.86393993 27.58903418 45.49146432 27.62944061 C39.78944385 27.65961727 34.08750937 27.67441001 28.38541061 27.67772073 C24.98134489 27.68006935 21.57760014 27.68900473 18.17362022 27.7141819 C14.3743014 27.73846914 10.57577002 27.7376269 6.77639771 27.73066711 C5.65254166 27.74347717 4.52868561 27.75628723 3.37077332 27.76948547 C-2.79067183 27.72830166 -6.47171862 27.40783857 -11.14816284 23.26069641 C-14.51364897 19.4464788 -14.7163994 15.61253279 -14.57003784 10.70210266 C-13.8688731 6.64443635 -12.17602753 5.01330067 -9.14816284 2.26069641 C-6.01737192 0.33164567 -3.65383983 0.00830716 0 0 Z " fill="#FEFEFD" transform="translate(217.14816284179688,248.7393035888672)"/>
</svg>
